<?xml version="1.0" standalone="no"?>
<!DOCTYPE svg PUBLIC "-//W3C//DTD SVG 20010904//EN"
 "http://www.w3.org/TR/2001/REC-SVG-20010904/DTD/svg10.dtd">
<svg version="1.0" xmlns="http://www.w3.org/2000/svg"
 width="700.000000pt" height="700.000000pt" viewBox="0 0 700.000000 700.000000"
 preserveAspectRatio="xMidYMid meet">
<metadata>
Created by potrace 1.11, written by Peter Selinger 2001-2013
</metadata>
<g transform="translate(0.000000,700.000000) scale(0.100000,-0.100000)"
fill="#000000" stroke="none">
<path d="M740 6979 c-91 -20 -109 -26 -210 -72 -138 -62 -290 -194 -373 -324
-72 -112 -101 -183 -144 -348 -4 -16 -9 -1238 -10 -2715 -2 -3008 -8 -2752 69
-2942 111 -271 346 -474 633 -549 l90 -24 2705 0 2705 0 88 23 c214 57 385
169 511 336 93 124 142 230 177 386 18 82 18 177 18 2740 0 1649 -4 2678 -10
2715 -32 203 -122 380 -264 520 -110 109 -206 171 -343 220 -161 57 10 54
-2892 54 -2583 -1 -2668 -1 -2750 -20z"/>
</g>
</svg>
