<svg id="Layer_1" data-name="Layer 1" xmlns="http://www.w3.org/2000/svg" xmlns:xlink="http://www.w3.org/1999/xlink" viewBox="0 0 5923.65 600"><defs><style>.cls-1{fill:none;}.cls-2{fill:#0694a2;}.cls-3{clip-path:url(#clip-path);}.cls-4{fill:#fcfdfd;}.cls-5{fill:#fff;}</style><clipPath id="clip-path"><rect class="cls-1" width="600" height="600"/></clipPath></defs><rect class="cls-2" width="600" height="600" rx="80"/><g class="cls-3"><path class="cls-4" d="M260.26,220.85c21.35,10.41,41.33,20.48,61.6,29.91a89,89,0,0,1,28,19.95c15.11,16.05,31.07,31.28,46.44,47.1,3.67,3.78,7.39,5.51,12.7,5.36,12.31-.33,24.64-.1,37.94-.1.33-3.57.6-6.76.92-9.95,1.11-11,9-18.8,19.59-19.3s19.33,6.45,21.52,17.18a39,39,0,0,1,.71,7.78c.06,22,.19,44.09,0,66.13-.16,17.23-8.43,27.37-21.51,27.13s-20.39-10.12-20.42-27.88c0-5.89,0-11.77,0-18.67-16.44,0-31.7-.38-46.92.12-11.67.39-20.65-3.55-28.8-12-15.25-15.78-31.3-30.79-45.09-44.23-13.94,12.63-28.12,25.25-41.94,38.27-1.64,1.55-2.22,5.48-1.65,7.91,4.72,20,9.85,39.84,14.78,59.77,1,4,2.61,6,7.33,6.66C319,424,326,432.34,325.24,444.44c-.7,11.4-9.77,19.28-23.21,19.4q-35.88.32-71.76,0c-11.09-.11-19.72-6.61-22-15.67a20.76,20.76,0,0,1,10.43-23.75c3.47-1.78,7.79-2.37,11.77-2.56,8.15-.38,16.34-.11,25.94-.11-3.86-15.19-7.39-29.19-11-43.17-2.32-9-4.62-18.05-7.09-27-2.51-9.13-.38-16.77,6.28-23.55,12.3-12.53,24.38-25.28,36.51-38,2.27-2.38,4.4-4.9,7.39-8.24l-49-23.73c-6,13.65-11.75,26.85-17.5,40.06-1.18,2.74-2.22,5.54-3.29,8.32-4.56,11.86-12.81,17.4-25.87,17-19.42-.56-38.87-.06-58.31-.17-14.16-.08-24.41-8.93-24.38-20.75,0-12,10.13-21.26,24-21.51s27.67-.27,41.49.05c5.57.13,9.55-1,10.63-7.06a9,9,0,0,1,.46-1c14.87-47.21,44.81-85.61,73-125,5.47-7.65,12.43-11.22,21.84-11.16,30.28.19,60.55,0,90.83.12,14.65.08,24.08,8.42,24.15,20.73.07,12.74-9.69,21.35-24.86,21.44-23.92.15-47.85.29-71.77-.11-7-.12-11.78,1.53-15.75,7.74-7.21,11.28-15.32,22-23.9,34.14"/><path class="cls-4" d="M174.94,218.11a34.89,34.89,0,1,1,.53-69.77c18.85.16,34.74,16.32,34.64,35.24S194.27,218,174.94,218.11"/></g><path class="cls-5" d="M961.45,380q0-17.48-12.34-26.83t-44.4-19.73Q872.64,323,853.93,313q-51-27.54-51-74.21a72.3,72.3,0,0,1,13.67-43.27q13.68-19,39.27-29.7t57.45-10.69q32.07,0,57.15,11.61t39,32.79q13.88,21.18,13.87,48.1H961.65q0-20.55-12.95-32t-36.38-11.41q-22.62,0-35.16,9.56T864.62,239q0,14.6,14.7,24.46t43.27,18.5q52.63,15.84,76.68,39.26t24.05,58.38q0,38.86-29.39,60.95t-79.15,22.1q-34.53,0-62.9-12.64t-43.27-34.64q-14.91-22-14.91-51h61.88q0,49.55,59.2,49.54,22,0,34.33-8.94T961.45,380Z"/><path class="cls-5" d="M1135.56,353V458.49h-61.67V159.19h116.76q33.72,0,59.31,12.33t39.37,35q13.77,22.71,13.77,51.7,0,44-30.12,69.38T1189.63,353Zm0-50h55.09q24.46,0,37.31-11.51t12.85-32.89q0-22-13-35.56t-35.77-14h-56.53Z"/><path class="cls-5" d="M1534.36,328.78H1416V409h139v49.54H1354.29V159.19h200.22v49.95H1416v71.33h118.4Z"/><path class="cls-5" d="M1780,328.78H1661.61V409h139v49.54H1599.94V159.19h200.22v49.95H1661.61v71.33H1780Z"/><path class="cls-5" d="M1845.59,458.49V159.19h92.1q39.46,0,70.61,17.78t48.62,50.57q17.46,32.79,17.47,74.52v13.77q0,41.73-17.17,74.21a122.9,122.9,0,0,1-48.41,50.36q-31.24,17.89-70.51,18.09Zm61.67-249.35V409h29.81q36.18,0,55.3-23.64t19.53-67.63V301.85q0-45.63-18.91-69.17t-55.3-23.54Z"/><path class="cls-5" d="M2396.93,380q0-17.48-12.34-26.83t-44.4-19.73Q2308.12,323,2289.41,313q-51-27.54-51-74.21a72.3,72.3,0,0,1,13.67-43.27q13.68-19,39.27-29.7t57.45-10.69q32.07,0,57.15,11.61t39,32.79q13.88,21.18,13.87,48.1h-61.67q0-20.55-13-32t-36.38-11.41q-22.62,0-35.16,9.56T2300.1,239q0,14.6,14.7,24.46t43.27,18.5q52.63,15.84,76.68,39.26t24.05,58.38q0,38.86-29.39,60.95t-79.15,22.1q-34.53,0-62.9-12.64t-43.27-34.64q-14.91-22-14.91-51h61.88q0,49.55,59.2,49.54,22,0,34.33-8.94T2396.93,380Z"/><path class="cls-5" d="M2603.11,338.44,2571,373v85.51h-61.67V159.19H2571V294.86l27.14-37.21,76.26-98.46h75.86L2644,292.19l109.36,166.3H2680Z"/><path class="cls-5" d="M2954.43,396.82H2846.3l-20.56,61.67h-65.57l111.41-299.3h57.15l112,299.3h-65.57ZM2863,346.87h74.83l-37.62-112Z"/><path class="cls-5" d="M3278.19,209.14h-91.68V458.49h-61.67V209.14h-90.45V159.19h243.8Z"/><path class="cls-5" d="M3387.76,458.49h-61.67V159.19h61.67Z"/><path class="cls-5" d="M3697.14,458.49h-61.67l-120-196.93V458.49h-61.67V159.19h61.67l120.26,197.34V159.19h61.46Z"/><path class="cls-5" d="M3996.65,420.67q-16.65,19.93-47.07,30.94t-67.43,11q-38.85,0-68.14-17t-45.23-49.23q-15.93-32.27-16.34-75.85V300.21q0-44.82,15.11-77.61t43.58-50.15q28.47-17.37,66.71-17.37,53.23,0,83.25,25.38t35.56,73.9h-60q-4.11-25.68-18.19-37.61t-38.75-11.93q-31.46,0-47.9,23.64t-16.65,70.31v19.11q0,47.08,17.88,71.13t52.42,24.05q34.74,0,49.54-14.8v-51.6h-56.12V301.23h117.79Z"/><path class="cls-5" d="M4279.93,348.93H4230.8V458.49h-61.67V159.19h111.21q53,0,81.81,23.64t28.78,66.81q0,30.63-13.26,51.08t-40.18,32.58l64.75,122.31v2.88h-66.19Zm-49.13-50h49.74q23.23,0,36-11.82t12.74-32.58q0-21.16-12-33.3t-36.9-12.13H4230.8Z"/><path class="cls-5" d="M4626.72,328.78H4508.31V409h139v49.54H4446.64V159.19h200.22v49.95H4508.31v71.33h118.41Z"/><path class="cls-5" d="M4847.5,380q0-17.48-12.34-26.83t-44.4-19.73Q4758.69,323,4740,313q-51-27.54-51-74.21a72.24,72.24,0,0,1,13.67-43.27q13.66-19,39.26-29.7t57.46-10.69q32.07,0,57.14,11.61t39,32.79q13.88,21.18,13.87,48.1H4847.7q0-20.55-12.95-32t-36.38-11.41q-22.62,0-35.15,9.56T4750.68,239q0,14.6,14.7,24.46t43.27,18.5q52.62,15.84,76.67,39.26t24.05,58.38q0,38.86-29.39,60.95t-79.14,22.1q-34.55,0-62.91-12.64t-43.27-34.64q-14.91-22-14.9-51h61.87q0,49.55,59.21,49.54,22,0,34.32-8.94T4847.5,380Z"/><path class="cls-5" d="M5186.48,159.19V356.33q0,49.13-30.73,77.7t-84,28.57q-52.41,0-83.25-27.75t-31.45-76.26V159.19h61.67V356.74q0,29.4,14.08,42.86t39,13.46q52,0,52.84-54.68V159.19Z"/><path class="cls-5" d="M5307.56,409h130.95v49.54H5245.89V159.19h61.67Z"/><path class="cls-5" d="M5665.86,209.14h-91.68V458.49h-61.67V209.14h-90.45V159.19h243.8Z"/><path class="cls-5" d="M5861.77,380q0-17.48-12.33-26.83T5805,333.41Q5773,323,5754.26,313q-51-27.54-51-74.21A72.24,72.24,0,0,1,5717,195.47q13.67-19,39.26-29.7t57.46-10.69q32.07,0,57.14,11.61t39,32.79q13.88,21.18,13.88,48.1H5862q0-20.55-12.95-32t-36.39-11.41q-22.62,0-35.15,9.56T5765,239q0,14.6,14.7,24.46t43.27,18.5q52.62,15.84,76.67,39.26t24.06,58.38q0,38.86-29.4,60.95t-79.14,22.1q-34.54,0-62.91-12.64t-43.27-34.64q-14.91-22-14.9-51h61.87q0,49.55,59.21,49.54,22,0,34.33-8.94T5861.77,380Z"/></svg>