<svg id="Layer_1" data-name="Layer 1" xmlns="http://www.w3.org/2000/svg" xmlns:xlink="http://www.w3.org/1999/xlink" viewBox="0 0 600 600"><defs><style>.cls-1{fill:none;}.cls-2{fill:#0694a2;}.cls-3{clip-path:url(#clip-path);}.cls-4{fill:#fcfdfd;}</style><clipPath id="clip-path"><rect class="cls-1" width="600" height="600"/></clipPath></defs><title>logo</title><rect class="cls-2" width="600" height="600" rx="80"/><g class="cls-3"><path class="cls-4" d="M260.26,220.85c21.35,10.41,41.33,20.48,61.6,29.91a89,89,0,0,1,28,19.95c15.11,16.05,31.07,31.28,46.44,47.1,3.67,3.78,7.39,5.51,12.7,5.36,12.31-.33,24.64-.1,37.94-.1.33-3.57.6-6.76.92-9.95,1.11-11,9-18.8,19.59-19.3s19.33,6.45,21.52,17.18a39,39,0,0,1,.71,7.78c.06,22,.19,44.09,0,66.13-.16,17.23-8.43,27.37-21.51,27.13s-20.39-10.12-20.42-27.88c0-5.89,0-11.77,0-18.67-16.44,0-31.7-.38-46.92.12-11.67.39-20.65-3.55-28.8-12-15.25-15.78-31.3-30.79-45.09-44.23-13.94,12.63-28.12,25.25-41.94,38.27-1.64,1.55-2.22,5.48-1.65,7.91,4.72,20,9.85,39.84,14.78,59.77,1,4,2.61,6,7.33,6.66C319,424,326,432.34,325.24,444.44c-.7,11.4-9.77,19.28-23.21,19.4q-35.88.32-71.76,0c-11.09-.11-19.72-6.61-22-15.67a20.76,20.76,0,0,1,10.43-23.75c3.47-1.78,7.79-2.37,11.77-2.56,8.15-.38,16.34-.11,25.94-.11-3.86-15.19-7.39-29.19-11-43.17-2.32-9-4.62-18.05-7.09-27-2.51-9.13-.38-16.77,6.28-23.55,12.3-12.53,24.38-25.28,36.51-38,2.27-2.38,4.4-4.9,7.39-8.24l-49-23.73c-6,13.65-11.75,26.85-17.5,40.06-1.18,2.74-2.22,5.54-3.29,8.32-4.56,11.86-12.81,17.4-25.87,17-19.42-.56-38.87-.06-58.31-.17-14.16-.08-24.41-8.93-24.38-20.75,0-12,10.13-21.26,24-21.51s27.67-.27,41.49.05c5.57.13,9.55-1,10.63-7.06a9,9,0,0,1,.46-1c14.87-47.21,44.81-85.61,73-125,5.47-7.65,12.43-11.22,21.84-11.16,30.28.19,60.55,0,90.83.12,14.65.08,24.08,8.42,24.15,20.73.07,12.74-9.69,21.35-24.86,21.44-23.92.15-47.85.29-71.77-.11-7-.12-11.78,1.53-15.75,7.74-7.21,11.28-15.32,22-23.9,34.14"/><path class="cls-4" d="M174.94,218.11a34.89,34.89,0,1,1,.53-69.77c18.85.16,34.74,16.32,34.64,35.24S194.27,218,174.94,218.11"/></g></svg>