<svg viewBox="0 0 96 24" fill="none" xmlns="http://www.w3.org/2000/svg">
    <g clip-path="url(#clip0)">
        <path d="M51.616 4.3V7.204H47.458V19.7H44.422V7.204H40.286V4.3H51.616ZM62.4589 19.7L59.3569 14.354H57.0469V19.7H54.0109V4.3H60.1709C60.6842 4.3 61.2269 4.388 61.7989 4.564C62.3709 4.74 62.9429 5.07 63.5149 5.554C64.1015 6.038 64.5415 6.632 64.8349 7.336C65.1429 8.04 65.2969 8.72933 65.2969 9.404C65.2969 10.3573 65.0182 11.2447 64.4609 12.066C63.9182 12.8727 63.2069 13.4813 62.3269 13.892L65.7369 19.7H62.4589ZM57.0469 7.138V11.692H60.1709C60.4349 11.692 60.7282 11.6187 61.0509 11.472C61.3735 11.3253 61.6522 11.0613 61.8869 10.68C62.1362 10.284 62.2609 9.85866 62.2609 9.404C62.2609 9.11066 62.1875 8.788 62.0409 8.436C61.9089 8.084 61.6669 7.78333 61.3149 7.534C60.9629 7.27 60.5815 7.138 60.1709 7.138H57.0469ZM71.2605 16.796H77.7505V19.7H68.2245V4.3H77.6405V7.204H71.2605V10.482H77.0905V13.342H71.2605V16.796ZM87.7651 20.008C86.6945 20.008 85.6678 19.8027 84.6851 19.392C83.7025 18.9813 82.8445 18.4093 82.1111 17.676C81.3778 16.9427 80.8058 16.0847 80.3951 15.102C79.9845 14.1193 79.7791 13.0853 79.7791 12C79.7791 10.9147 79.9845 9.88066 80.3951 8.898C80.8058 7.90066 81.3778 7.04266 82.1111 6.324C82.8445 5.59066 83.7025 5.01866 84.6851 4.608C85.6678 4.19733 86.6945 3.992 87.7651 3.992C88.8358 3.992 89.8625 4.19733 90.8451 4.608C91.8278 5.01866 92.6858 5.59066 93.4191 6.324C94.1671 7.04266 94.7465 7.90066 95.1571 8.898C95.5678 9.88066 95.7731 10.9147 95.7731 12C95.7731 13.0853 95.5678 14.1193 95.1571 15.102C94.7465 16.0847 94.1671 16.9427 93.4191 17.676C92.6858 18.4093 91.8278 18.9813 90.8451 19.392C89.8625 19.8027 88.8358 20.008 87.7651 20.008ZM87.7651 17.038C88.2638 17.038 88.7918 16.9573 89.3491 16.796C89.9211 16.62 90.4858 16.3047 91.0431 15.85C91.6005 15.3953 92.0185 14.8233 92.2971 14.134C92.5905 13.43 92.7371 12.7187 92.7371 12C92.7371 11.6627 92.6931 11.274 92.6051 10.834C92.5318 10.394 92.3778 9.96133 92.1431 9.536C91.9231 9.096 91.6151 8.678 91.2191 8.282C90.8231 7.886 90.3171 7.56333 89.7011 7.314C89.0851 7.06466 88.4398 6.94 87.7651 6.94C87.2665 6.94 86.7311 7.028 86.1591 7.204C85.6018 7.36533 85.0445 7.67333 84.4871 8.128C83.9298 8.58266 83.5045 9.162 83.2111 9.866C82.9325 10.57 82.7931 11.2813 82.7931 12C82.7931 12.528 82.8738 13.078 83.0351 13.65C83.2111 14.222 83.5265 14.794 83.9811 15.366C84.4505 15.9233 85.0298 16.3413 85.7191 16.62C86.4085 16.8987 87.0905 17.038 87.7651 17.038Z" fill="white" />
        <path fill-rule="evenodd" clip-rule="evenodd" d="M16.4417 3.22548C17.926 0.257904 22.1334 0.258061 23.5971 3.22547L30.5214 17.5443C31.7984 20.1758 30.4397 22.982 27.5 23H20H12.5C9.52647 23 7.58405 20.9408 8.91385 18.2812L16.4417 3.22548Z" fill="url(#paint0_linear)" />
        <path fill-rule="evenodd" clip-rule="evenodd" d="M7 6.18115C8.4741 3.27296 11.5259 3.27294 13 6.18115L22 23H13H5C1.5 23 0.170198 19.6596 1.5 17C1.5 17 5.5259 9.12934 7 6.18115Z" fill="#F50057" />
    </g>
    <defs>
        <linearGradient id="paint0_linear" x1="20.4524" y1="3.55212" x2="4.06899" y2="13.1012" gradientUnits="userSpaceOnUse">
            <stop offset="0.000316723" stop-color="#F50057" />
            <stop offset="0.999287" stop-color="#4B001B" />
        </linearGradient>
        <clipPath id="clip0">
            <rect width="96" height="24" fill="white" />
        </clipPath>
    </defs>
</svg>