<?xml version="1.0" encoding="UTF-8"?>
<svg width="640px"
     height="535px"
     viewBox="0 0 640 535"
     version="1.1"
     xmlns="http://www.w3.org/2000/svg"
     xmlns:xlink="http://www.w3.org/1999/xlink">
    <!-- Generator: Sketch 53.2 (72643) - https://sketchapp.com -->
    <title>undraw_blank_canvas_3rbb</title>
    <desc>Created with Sketch.</desc>
    <defs>
        <linearGradient x1="49.9946628%"
                        y1="99.9937813%"
                        x2="49.9946628%"
                        y2="-0.000220870294%"
                        id="linearGradient-1">
            <stop stop-color="#808080"
                  stop-opacity="0.25"
                  offset="0%"></stop>
            <stop stop-color="#808080"
                  stop-opacity="0.12"
                  offset="54%"></stop>
            <stop stop-color="#808080"
                  stop-opacity="0.1"
                  offset="100%"></stop>
        </linearGradient>
    </defs>
    <g id="Page-1"
       stroke="none"
       stroke-width="1"
       fill="none"
       fill-rule="evenodd">
        <g id="404"
           transform="translate(-640.000000, -200.000000)">
            <g transform="translate(640.000000, 200.000000)"
               id="undraw_blank_canvas_3rbb">
                <g>
                    <path d="M207.458659,19.642042 C226.171772,2.98538539 255.545145,-0.429229229 282.285485,0.896896897 C366.267067,5.07387387 442.074074,45.6136136 507.65005,91.4770771 C531.392192,108.076076 554.762763,125.969169 570.17017,148.833634 C601.561562,195.376176 592.233834,259.85025 548.619019,298.192593 C533.775375,311.236036 515.786186,321.255656 497.316517,330.102903 C464.477277,345.862663 429.043443,358.515315 391.770971,362.134935 C365.197197,364.697497 338.29029,362.615415 311.863864,359.034234 C238.042843,349.001802 165.592793,326.861261 104.840841,288.986587 C78.203003,272.374775 53.0962963,251.720521 42.1157157,224.858458 C31.1351351,197.996396 38.162963,163.914314 65.3645646,147.981582 C76.6142142,141.402202 90.0676677,138.42963 103.232833,135.636436 C122.618619,131.52993 142.311912,127.481081 159.801401,119.133534 C177.873874,110.510511 199.264865,93.8346346 195.677277,74.7435435 C191.859059,54.2878879 188.771171,36.2986987 207.458659,19.642042 Z"
                          id="Path"
                          fill="#304FFE"
                          opacity="0.1"></path>
                    <path d="M438.806807,429.158759 C438.806807,429.158759 454.861261,400.720721 479.032633,392.526927 C489.194579,389.154488 497.988542,382.576999 504.094494,373.781782 C506.960973,369.584342 509.435707,365.132394 511.487487,360.482082"
                          id="Path"
                          stroke="#535461"
                          stroke-width="2"></path>
                    <path d="M526.696296,355.222422 C523.941542,357.9003 511.10951,360.661461 511.10951,360.661461 C511.10951,360.661461 514.255055,347.919119 517.00981,345.247648 C519.764268,342.572798 524.165591,342.637334 526.84044,345.391792 C529.51529,348.14625 529.450754,352.547573 526.696296,355.222422 L526.696296,355.222422 Z"
                          id="Path"
                          fill="#304FFE"></path>
                    <path d="M519.437838,378.279079 C515.670871,379.028629 503.421822,374.377578 503.421822,374.377578 C503.421822,374.377578 512.992993,365.408609 516.753554,364.63984 C520.519925,363.891519 524.179807,366.338133 524.928128,370.104505 C525.676449,373.870876 523.229835,377.530758 519.463463,378.279079 L519.437838,378.279079 Z"
                          id="Path"
                          fill="#304FFE"></path>
                    <path d="M493.011411,403.225626 C489.378979,401.944344 481.133934,391.758158 481.133934,391.758158 C481.133934,391.758158 493.946747,388.836837 497.55996,390.092492 C499.958797,390.864371 501.752,392.874109 502.246598,395.345058 C502.741196,397.816007 501.859717,400.361123 499.942801,401.996865 C498.025886,403.632607 495.373796,404.102756 493.011411,403.225626 L493.011411,403.225626 Z"
                          id="Path"
                          fill="#304FFE"></path>
                    <path d="M468.763163,417.601602 C464.976977,416.960961 455.123924,408.305906 455.123924,408.305906 C455.123924,408.305906 467.238438,403.257658 471.024625,403.885485 C473.493814,404.268965 475.56716,405.94829 476.455139,408.28398 C477.343118,410.61967 476.909068,413.252253 475.318273,415.179252 C473.727478,417.106251 471.224766,418.031093 468.763163,417.601602 L468.763163,417.601602 Z"
                          id="Path"
                          fill="#304FFE"></path>
                    <path d="M492.697497,364.422022 C492.697497,368.265866 499.642042,379.393794 499.642042,379.393794 C499.642042,379.393794 506.599399,368.265866 506.599399,364.428428 C506.599399,360.589524 503.487353,357.477477 499.648448,357.477477 C495.809544,357.477477 492.697497,360.589524 492.697497,364.428428 L492.697497,364.422022 Z"
                          id="Path"
                          fill="#304FFE"></path>
                    <path d="M464.554154,381.591191 C465.707307,385.255656 475.662863,393.801802 475.662863,393.801802 C475.662863,393.801802 478.968569,381.097898 477.821822,377.433433 C476.673689,373.769668 472.772874,371.730346 469.109109,372.878479 C465.445344,374.026612 463.406021,377.927426 464.554154,381.591191 Z"
                          id="Path"
                          fill="#304FFE"></path>
                    <path d="M439.492292,402.027628 C440.004805,405.833033 448.377978,415.942342 448.377978,415.942342 C448.377978,415.942342 453.784985,403.981582 453.272472,400.176176 C452.761208,396.370885 449.261948,393.700548 445.456657,394.211812 C441.651365,394.723077 438.981028,398.222336 439.492292,402.027628 L439.492292,402.027628 Z"
                          id="Path"
                          fill="#304FFE"></path>
                    <path d="M526.696296,355.222422 C523.941542,357.9003 511.10951,360.661461 511.10951,360.661461 C511.10951,360.661461 514.255055,347.919119 517.00981,345.247648 C519.764268,342.572798 524.165591,342.637334 526.84044,345.391792 C529.51529,348.14625 529.450754,352.547573 526.696296,355.222422 L526.696296,355.222422 Z"
                          id="Path"
                          fill="#000000"
                          opacity="0.25"></path>
                    <path d="M519.437838,378.279079 C515.670871,379.028629 503.421822,374.377578 503.421822,374.377578 C503.421822,374.377578 512.992993,365.408609 516.753554,364.63984 C520.519925,363.891519 524.179807,366.338133 524.928128,370.104505 C525.676449,373.870876 523.229835,377.530758 519.463463,378.279079 L519.437838,378.279079 Z"
                          id="Path"
                          fill="#000000"
                          opacity="0.25"></path>
                    <path d="M493.011411,403.225626 C489.378979,401.944344 481.133934,391.758158 481.133934,391.758158 C481.133934,391.758158 493.946747,388.836837 497.55996,390.092492 C499.958797,390.864371 501.752,392.874109 502.246598,395.345058 C502.741196,397.816007 501.859717,400.361123 499.942801,401.996865 C498.025886,403.632607 495.373796,404.102756 493.011411,403.225626 L493.011411,403.225626 Z"
                          id="Path"
                          fill="#000000"
                          opacity="0.25"></path>
                    <path d="M468.763163,417.601602 C464.976977,416.960961 455.123924,408.305906 455.123924,408.305906 C455.123924,408.305906 467.238438,403.257658 471.024625,403.885485 C473.493814,404.268965 475.56716,405.94829 476.455139,408.28398 C477.343118,410.61967 476.909068,413.252253 475.318273,415.179252 C473.727478,417.106251 471.224766,418.031093 468.763163,417.601602 L468.763163,417.601602 Z"
                          id="Path"
                          fill="#000000"
                          opacity="0.25"></path>
                    <path d="M492.697497,364.422022 C492.697497,368.265866 499.642042,379.393794 499.642042,379.393794 C499.642042,379.393794 506.599399,368.265866 506.599399,364.428428 C506.599399,360.589524 503.487353,357.477477 499.648448,357.477477 C495.809544,357.477477 492.697497,360.589524 492.697497,364.428428 L492.697497,364.422022 Z"
                          id="Path"
                          fill="#000000"
                          opacity="0.25"></path>
                    <path d="M464.554154,381.591191 C465.707307,385.255656 475.662863,393.801802 475.662863,393.801802 C475.662863,393.801802 478.968569,381.097898 477.821822,377.433433 C476.673689,373.769668 472.772874,371.730346 469.109109,372.878479 C465.445344,374.026612 463.406021,377.927426 464.554154,381.591191 Z"
                          id="Path"
                          fill="#000000"
                          opacity="0.25"></path>
                    <path d="M439.492292,402.027628 C440.004805,405.833033 448.377978,415.942342 448.377978,415.942342 C448.377978,415.942342 453.784985,403.981582 453.272472,400.176176 C452.761208,396.370885 449.261948,393.700548 445.456657,394.211812 C441.651365,394.723077 438.981028,398.222336 439.492292,402.027628 L439.492292,402.027628 Z"
                          id="Path"
                          fill="#000000"
                          opacity="0.25"></path>
                    <path d="M439.729329,428.582182 C439.729329,428.582182 442.881281,396.076076 461.664865,378.791592 C469.587683,371.58863 474.960308,362.010071 476.976176,351.493894 C477.898306,346.492126 478.357239,341.41598 478.34731,336.32993"
                          id="Path"
                          stroke="#535461"
                          stroke-width="2"></path>
                    <path d="M490.115716,325.387788 C488.680681,328.94975 478.071672,336.675876 478.071672,336.675876 C478.071672,336.675876 475.790991,323.747748 477.226026,320.192192 C478.110393,317.826683 480.208179,316.126936 482.705653,315.752283 C485.203126,315.377631 487.707317,316.387024 489.246849,318.388919 C490.786381,320.390813 491.119012,323.070217 490.115716,325.387788 L490.115716,325.387788 Z"
                          id="Path"
                          fill="#304FFE"></path>
                    <path d="M492.825626,349.405405 C489.686486,351.615616 476.578979,352.333133 476.578979,352.333133 C476.578979,352.333133 481.704104,340.244244 484.824024,338.034034 C486.855324,336.604686 489.494871,336.367599 491.748373,337.412082 C494.001875,338.456565 495.526971,340.623936 495.749173,343.097767 C495.971376,345.571599 494.856925,347.976057 492.825626,349.405405 Z"
                          id="Path"
                          fill="#304FFE"></path>
                    <path d="M478.776376,382.923724 C474.932533,383.244044 463.272873,377.247648 463.272873,377.247648 C463.272873,377.247648 473.785786,369.393393 477.584785,369.066667 C481.411305,368.744694 484.774323,371.585692 485.096296,375.412212 C485.418268,379.238733 482.577271,382.601751 478.750751,382.923724 L478.776376,382.923724 Z"
                          id="Path"
                          fill="#304FFE"></path>
                    <path d="M462.433634,405.890691 C458.717918,406.851652 446.1998,402.918118 446.1998,402.918118 C446.1998,402.918118 455.226426,393.391792 458.942142,392.430831 C461.364757,391.750227 463.966043,392.432133 465.743227,394.213678 C467.520411,395.995223 468.195939,398.598172 467.5094,401.019112 C466.822861,403.440052 464.881476,405.300888 462.433634,405.884284 L462.433634,405.890691 Z"
                          id="Path"
                          fill="#304FFE"></path>
                    <path d="M462.766767,347.566767 C464.317117,351.077477 475.182382,358.457658 475.182382,358.457658 C475.182382,358.457658 477.033834,345.465465 475.477077,341.954755 C473.878075,338.522413 469.82598,337.001364 466.363366,338.53371 C462.900752,340.066057 461.301649,344.087988 462.766767,347.57958 L462.766767,347.566767 Z"
                          id="Path"
                          fill="#304FFE"></path>
                    <path d="M443.995996,374.672272 C446.526527,377.555155 459.095896,381.334935 459.095896,381.334935 C459.095896,381.334935 456.975375,368.381181 454.438438,365.498298 C452.81323,363.583323 450.281355,362.694053 447.815622,363.172169 C445.34989,363.650285 443.333875,365.421409 442.542183,367.805031 C441.75049,370.188653 442.306277,372.813972 443.995996,374.672272 L443.995996,374.672272 Z"
                          id="Path"
                          fill="#304FFE"></path>
                    <path d="M429.363764,403.513914 C431.375375,406.787588 443.124725,412.63023 443.124725,412.63023 C443.124725,412.63023 443.220821,399.50991 441.202803,396.236236 C439.902771,394.120251 437.572627,392.858559 435.090115,392.926427 C432.607602,392.994295 430.349872,394.381413 429.167392,396.565266 C427.984911,398.749119 428.057325,401.397929 429.357357,403.513914 L429.363764,403.513914 Z"
                          id="Path"
                          fill="#304FFE"></path>
                    <ellipse id="Oval"
                             fill="#304FFE"
                             opacity="0.1"
                             cx="239.708509"
                             cy="522.154154"
                             rx="76.1593594"
                             ry="12.767968"></ellipse>
                    <ellipse id="Oval"
                             fill="#304FFE"
                             opacity="0.1"
                             cx="389.612012"
                             cy="424.142543"
                             rx="76.1593594"
                             ry="12.767968"></ellipse>
                    <polygon id="Path"
                             fill="#B77B7F"
                             points="394.666667 255.634835 394.596196 258.126927 390.265465 410.932533 382.987788 410.932533 386.556156 258.126927 386.626627 255.25045"></polygon>
                    <polygon id="Path"
                             fill="#DDA2A6"
                             points="436.801602 385.082683 431.34975 385.06987 350.347147 384.896897 346.029229 384.89049 348.329129 377.805005 436.225025 377.805005"></polygon>
                    <polygon id="Path"
                             fill="#000000"
                             opacity="0.1"
                             points="394.666667 255.634835 394.596196 258.126927 386.556156 258.126927 386.626627 255.25045"></polygon>
                    <rect id="Rectangle"
                          fill="#B77B7F"
                          x="384.237037"
                          y="251.8999"
                          width="13.4982983"
                          height="5.08028028"></rect>
                    <polygon id="Path"
                             fill="#000000"
                             opacity="0.1"
                             points="351.064665 377.805005 350.347147 384.896897 346.029229 384.89049 348.329129 377.805005"></polygon>
                    <polygon id="Path"
                             fill="#DDA2A6"
                             points="362.692292 251.803804 362.468068 254.007608 344.498098 431.234434 336.265866 430.843644 355.203203 254.007608 355.414615 251.995996"></polygon>
                    <polygon id="Path"
                             fill="#000000"
                             opacity="0.1"
                             points="436.801602 385.082683 431.34975 385.06987 430.613013 377.805005 436.225025 377.805005"></polygon>
                    <polygon id="Path"
                             fill="#DDA2A6"
                             points="445.418218 430.843644 437.17958 431.234434 419.216016 254.007608 418.991792 251.803804 426.263063 251.995996 426.474474 254.007608"></polygon>
                    <rect id="Rectangle"
                          fill="#FFFFFF"
                          x="298.922923"
                          y="77.0690691"
                          width="181.531932"
                          height="174.062062"></rect>
                    <path d="M393.231632,18.8540541 L393.231632,60.8864865 L386.152553,60.8864865 L386.152553,18.8540541 C386.097213,17.5535773 386.759481,16.3274891 387.877407,15.6607483 C388.995333,14.9940074 390.388851,14.9940074 391.506777,15.6607483 C392.624703,16.3274891 393.286971,17.5535773 393.231632,18.8540541 Z"
                          id="Path"
                          fill="#DDA2A6"></path>
                    <rect id="Rectangle"
                          fill="#000000"
                          opacity="0.1"
                          x="386.146146"
                          y="57.0618619"
                          width="7.08548549"
                          height="3.82462462"></rect>
                    <path d="M396.012012,59.9319319 L396.012012,73.8082082 L383.410599,73.8082082 L383.410611,59.9319319 C383.4089,59.4743559 383.589915,59.0350273 383.913472,58.7114699 C384.237029,58.3879126 384.676358,58.206898 385.133934,58.2086086 L394.301502,58.2086086 C395.248259,58.2156479 396.012038,58.9851481 396.012012,59.9319319 L396.012012,59.9319319 Z"
                          id="Path"
                          fill="#DDA2A6"></path>
                    <circle id="Oval"
                            fill="#000000"
                            opacity="0.1"
                            cx="389.688889"
                            cy="67.0174174"
                            r="2.67787788"></circle>
                    <circle id="Oval"
                            fill="#B77B7F"
                            cx="389.688889"
                            cy="66.4408408"
                            r="2.67787788"></circle>
                    <rect id="Rectangle"
                          fill="#000000"
                          opacity="0.1"
                          x="383.372172"
                          y="72.0912913"
                          width="12.6398398"
                          height="1.72332332"></rect>
                    <rect id="Rectangle"
                          fill="#000000"
                          opacity="0.1"
                          x="378.202202"
                          y="74.3911912"
                          width="22.9797798"
                          height="3.83103103"></rect>
                    <rect id="Rectangle"
                          fill="#DDA2A6"
                          x="378.202202"
                          y="73.238038"
                          width="22.9797798"
                          height="3.83103103"></rect>
                    <path d="M343.204004,246.646647 L439.716517,246.646647 C442.016321,246.646647 443.880681,248.511006 443.880681,250.810811 L443.880681,251.720521 L339.03984,251.720521 L339.03984,250.810811 C339.03984,248.511006 340.9042,246.646647 343.204004,246.646647 Z"
                          id="Path"
                          fill="#000000"
                          opacity="0.1"></path>
                    <polygon id="Path"
                             fill="#000000"
                             opacity="0.1"
                             points="355.414615 251.995996 362.692292 251.803804 362.468068 254.007608 355.203203 254.007608"></polygon>
                    <rect id="Rectangle"
                          fill="#000000"
                          opacity="0.1"
                          x="384.237037"
                          y="251.8999"
                          width="13.4982983"
                          height="2.10770771"></rect>
                    <polygon id="Path"
                             fill="#000000"
                             opacity="0.1"
                             points="426.474474 254.007608 419.216016 254.007608 418.991792 251.803804 426.263063 251.995996"></polygon>
                    <path d="M343.204004,247.780581 L439.716517,247.780581 C442.016321,247.780581 443.880681,249.64494 443.880681,251.944745 L443.880681,252.854454 L339.03984,252.854454 L339.03984,251.944745 C339.03984,250.84034 339.478563,249.781168 340.259495,249.000236 C341.040428,248.219304 342.099599,247.780581 343.204004,247.780581 L343.204004,247.780581 Z"
                          id="Path"
                          fill="#DDA2A6"></path>
                    <path d="M322.043644,166.97017 C320.589389,166.201401 304.746346,154.234234 304.746346,154.234234 L279.178378,138.01962 C279.178378,138.01962 279.043844,137.635235 278.8004,136.975375 C285.815415,129.012212 284.284284,117.455055 277.147548,109.331732 C268.498899,99.4786787 229.41982,78.2670671 217.644845,96.41001 C215.998398,98.9725726 215.940741,101.881081 215.511512,104.6999 C214.505706,111.279279 211.264064,117.653654 206.177377,123.022222 C202.256657,127.167167 197.112312,130.985385 194.857257,135.674875 C194.857257,135.617217 194.812412,135.55956 194.793193,135.495495 C194.248835,136.500593 193.853893,137.579671 193.620821,138.698699 C192.4997,144.41962 196.343544,149.903504 198.387187,155.470671 C199.073154,157.355942 199.571006,159.304429 199.873473,161.287688 C199.924725,160.89049 199.96957,160.4997 200.014414,160.102503 C200.512471,162.926442 200.682301,165.798504 200.520521,168.661461 C186.33033,171.550751 186.323924,195.824625 186.323924,195.824625 C186.323924,195.824625 184.574975,205.472673 184.86967,208.951351 C185.164364,212.43003 185.157958,219.951151 185.157958,221.764164 C185.157958,223.577177 183.409009,234.884484 183.236036,236.242643 C183.237735,236.261824 183.237735,236.281119 183.236036,236.3003 C182.97978,237.786587 180.321121,244.948949 186.746747,246.550551 C187.195195,246.665866 187.669269,246.761962 188.162563,246.851652 C188.438038,252.649449 188.937738,264.78959 188.495696,267.493093 C188.495696,267.493093 190.834034,283.803804 192.775175,287.948749 C194.002666,290.379175 195.438821,292.698459 197.067467,294.88048 C196.926517,295.873651 196.59127,296.82932 196.080881,297.692893 C195.087888,299.121522 195.6004,300.293894 197.25966,300.8 C197.202002,301.293293 197.137938,301.850651 197.067467,302.478478 C196.356356,308.76957 195.292893,321.274875 197.099499,327.610811 C199.578779,336.297898 199.726126,339.193594 199.726126,339.193594 C199.726126,339.193594 199.726126,341.794595 200.751151,343.242442 C201.776176,344.69029 203.666066,358.156557 203.666066,360.328328 C203.666066,362.5001 208.624625,382.03964 207.163964,386.671471 C205.703303,391.303303 206.875676,397.818619 206.875676,397.818619 C206.875676,397.818619 205.997998,409.254054 204.953754,411.714114 C203.90951,414.174174 203.493093,453.836236 205.094695,464.112112 C206.696296,474.387988 207.721321,482.927728 207.721321,482.927728 C207.721321,482.927728 206.702703,492.338739 207.573974,493.639239 C208.445245,494.93974 210.053253,502.761962 208.887287,503.191191 C207.721321,503.62042 207.138338,506.810811 207.138338,506.810811 C207.754927,507.748122 208.419961,508.652653 209.130731,509.520721 C208.681248,509.363839 208.242536,509.177654 207.817417,508.963363 C208.278679,509.604004 208.970571,510.513714 209.822623,511.525926 L209.021822,521.936336 C208.952417,522.774379 209.491406,523.542437 210.303103,523.762162 C215.515297,525.178972 221.084274,523.613159 224.794394,519.687688 C232.084885,512.307508 234.564164,513.31972 235.877477,508.835235 C236.018418,508.354755 236.14014,507.880681 236.242643,507.432232 C237.184384,503.434635 232.924124,500.462062 229.535135,502.166166 C230.002803,499.001401 230.367968,495.407407 230.015616,493.376577 C229.285285,489.18038 229.432633,478.180581 229.432633,478.180581 L228.414014,425.487888 C228.414014,425.487888 230.303904,415.064665 232.494895,411.015816 C234.685886,406.966967 234.416817,392.776777 234.416817,392.776777 L236.896096,346.163764 L239.228028,323.44024 C239.228028,323.44024 241.55996,315.624424 244.474875,324.311512 C244.474875,324.311512 242.873273,341.82022 243.603604,346.022823 C244.333934,350.225425 245.352553,370.62983 244.622222,375.114314 C243.891892,379.598799 240.688689,404.212212 242.7003,410.432833 C244.711912,416.653453 246.954154,424.193794 246.505706,426.66026 C246.057257,429.126727 244.583784,482.530531 244.583784,482.530531 C244.583784,482.530531 248.523724,492.780781 245.608809,496.137738 C242.693894,499.494695 245.461461,512.794394 245.461461,512.794394 C245.461461,512.794394 245.813814,513.044244 246.416016,513.39019 L246.332733,514.498498 L245.416617,526.472072 C245.349234,527.311005 245.886785,528.079703 246.697898,528.304304 C251.910098,529.722583 257.479829,528.156558 261.189189,524.22983 C268.47968,516.843243 270.958959,517.861862 272.272272,513.370971 C272.413213,512.89049 272.534935,512.422823 272.643844,511.967968 C273.668869,507.605205 268.47968,504.44044 265.007407,507.291291 L264.834434,507.438639 C264.653021,507.592849 264.462631,507.736177 264.264264,507.867868 C264.17212,507.935724 264.075838,507.997773 263.975976,508.053654 C264.706306,504.747948 265.76977,499.084685 265.257257,496.432432 C264.526927,492.524525 265.981181,480.65986 265.981181,480.65986 C265.981181,480.65986 270.209409,466.46967 270.356757,460.8 L271.522723,415.641241 C271.522723,415.641241 271.381782,397.254855 271.964765,392.77037 C272.547748,388.285886 277.211612,349.488689 281.875475,337.905906 C285.456657,329.039439 287.058258,306.412012 286.11011,294.938138 C286.058859,294.374374 286.007608,293.82983 285.943544,293.323724 C291.664464,289.101902 292.234635,282.08048 292.234635,282.08048 C292.234635,282.08048 286.981381,272.048048 281.926727,267.800601 C276.872072,263.553153 275.782983,256.24985 275.962362,253.142743 C276.048229,251.249401 275.424574,249.392143 274.213413,247.934334 C274.213413,247.934334 271.881481,240.406807 270.324725,239.638038 C270.197381,239.573212 270.082446,239.486468 269.985185,239.381782 C268.928128,238.247848 269.741742,235.006206 269.741742,235.006206 L269.741742,234.903704 C269.927528,234.154154 271.023023,229.298098 270.696296,228.055255 C270.305506,226.70991 270.888488,220.335536 270.888488,220.335536 C270.888488,220.335536 274.584985,209.335736 274.002002,200.648649 C273.419019,191.961562 281.587187,192.736737 281.587187,192.736737 L306.809209,192.474074 L309.679279,192.474074 C310.691332,191.614714 311.616192,190.657666 312.44044,189.616817 C317.245245,189.046647 326.963764,187.233634 328.052853,181.929129 C329.532733,174.888488 323.504304,167.745345 322.043644,166.97017 Z M205.190791,247.280881 L205.363764,242.866867 C205.95956,243.379379 206.356757,243.706106 206.356757,243.706106 C206.678394,244.861011 206.69385,246.079753 206.401602,247.242442 C206.084641,248.348614 205.280264,249.249705 204.217017,249.68969 C204.095075,249.742699 203.977292,249.804802 203.864665,249.875475 L203.621221,247.383383 L205.190791,247.280881 Z M296.674274,169.763363 C295.604404,169.282883 292.004004,169.378979 290.152553,169.378979 C288.301101,169.378979 285.296496,167.835035 285.296496,167.835035 C284.655856,166.585786 281.113113,165.842643 277.961161,165.41982 C275.565165,159.513113 272.195395,153.753754 271.740541,147.597197 C271.740541,147.372973 271.740541,147.148749 271.708509,146.924525 L272.073674,147.565165 C272.073674,147.565165 286.757157,156.931331 288.41001,159.737337 C289.691291,161.877077 295.860661,166.656256 298.717918,168.795996 C298.324498,169.309283 297.772839,169.678557 297.148348,169.846647 C296.985627,169.864304 296.821235,169.835425 296.674274,169.763363 Z"
                          id="Shape"
                          fill="url(#linearGradient-1)"
                          fill-rule="nonzero"></path>
                    <path d="M272.426026,512.006406 C272.317117,512.454855 272.201802,512.922523 272.060861,513.396597 C270.77958,517.881081 268.325926,516.843243 261.16997,524.165766 C257.535829,528.061178 252.041475,529.62042 246.902903,528.214615 C246.090602,527.999827 245.550137,527.232366 245.621622,526.395195 L246.524925,514.517718 L246.954154,508.803203 C246.954154,508.803203 258.383183,512.006406 264.2002,507.938338 C264.395349,507.805012 264.583518,507.661747 264.763964,507.509109 C264.808843,507.468626 264.851609,507.42586 264.892092,507.380981 C266.431372,506.106672 268.610841,505.952886 270.313812,506.998417 C272.016783,508.043949 272.865869,510.057103 272.426026,512.006406 L272.426026,512.006406 Z"
                          id="Path"
                          fill="#67647E"></path>
                    <path d="M236.55015,507.521922 C236.441241,507.97037 236.325926,508.438038 236.184985,508.912112 C234.903704,513.396597 232.45005,512.358759 225.294094,519.681281 C221.659954,523.576693 216.165599,525.135935 211.027027,523.73013 C210.214727,523.515342 209.674262,522.747882 209.745746,521.910711 L210.649049,510.033233 L211.078278,504.318719 C211.078278,504.318719 222.507307,507.521922 228.324324,503.453854 C228.519473,503.320528 228.707642,503.177262 228.888088,503.024625 C228.932967,502.984141 228.975733,502.941375 229.016216,502.896496 C230.555496,501.622188 232.734965,501.468401 234.437936,502.513933 C236.140907,503.559464 236.989993,505.572618 236.55015,507.521922 Z"
                          id="Path"
                          fill="#67647E"></path>
                    <path d="M224.743143,509.302903 L225.204404,515.478679 C218.644244,522.032432 210.834835,512.275475 208.547748,509.072272 C214.563363,512.172973 224.743143,509.302903 224.743143,509.302903 Z"
                          id="Path"
                          fill="#000000"
                          opacity="0.1"></path>
                    <path d="M263.303303,511.814214 L264.161762,511.244044 C258.171772,520.353954 249.273273,516.151351 246.499299,514.517718 L246.928529,508.803203 C246.928529,508.803203 258.357558,512.006406 264.174575,507.938338 C263.71972,510.167768 263.303303,511.814214 263.303303,511.814214 Z"
                          id="Path"
                          fill="#000000"
                          opacity="0.1"></path>
                    <path d="M281.548749,339.334535 C276.948949,350.821221 272.355556,389.304505 271.778979,393.788989 C271.202402,398.273473 271.34975,416.48048 271.34975,416.48048 L270.196597,461.254855 C270.049249,466.86046 265.885085,480.935335 265.885085,480.935335 C265.885085,480.935335 264.45005,492.71031 265.167568,496.586186 C265.885085,500.462062 263.303303,510.68028 263.303303,510.68028 L264.161762,510.103704 C256.98018,520.994595 245.634434,512.832833 245.634434,512.832833 C245.634434,512.832833 242.905305,499.622823 245.781782,496.317117 C248.658258,493.011411 244.775976,482.818819 244.775976,482.818819 C244.775976,482.818819 246.211011,429.825025 246.64024,427.384184 C247.069469,424.943343 244.916917,417.473473 242.905305,411.297698 C240.893694,405.121922 244.058458,380.707107 244.775976,376.254655 C245.493493,371.802202 244.487688,351.551552 243.77017,347.387387 C243.052653,343.223223 244.628629,325.842643 244.628629,325.842643 C241.758559,317.226026 239.458659,324.984184 239.458659,324.984184 L237.158759,347.528328 L234.717918,393.776176 C234.717918,393.776176 235.006206,407.87027 232.853654,411.874274 C230.701101,415.878278 228.83043,426.231031 228.83043,426.231031 L229.836236,478.513714 C229.836236,478.513714 229.695295,489.404605 230.412813,493.587988 C231.13033,497.771371 228.83043,508.527728 228.83043,508.527728 C220.79039,527.471471 207.875075,506.932533 207.875075,506.932533 C207.875075,506.932533 208.451652,503.774174 209.598398,503.344945 C210.745145,502.915716 209.169169,495.157558 208.317117,493.863463 C207.465065,492.569369 208.458058,483.235235 208.458058,483.235235 C208.458058,483.235235 207.452252,474.765966 205.895495,464.566967 C204.338739,454.367968 204.748749,415.01982 205.754555,412.578979 C206.76036,410.138138 207.618819,398.792392 207.618819,398.792392 C207.618819,398.792392 206.472072,392.328328 207.907107,387.728529 C209.342142,383.128729 204.46046,363.749349 204.46046,361.59039 C204.46046,359.431431 202.596196,346.08048 201.59039,344.645445 C200.584585,343.21041 200.584585,340.622222 200.584585,340.622222 C200.584585,340.622222 200.443644,337.752152 198.022022,329.135536 C196.241041,322.844444 197.291692,310.441642 197.98999,304.195395 C198.23984,301.882683 198.457658,300.409209 198.457658,300.409209 C198.457658,300.409209 280.824825,287.051852 284.111311,290.069269 C284.88008,290.78038 285.392593,293.221221 285.693694,296.6999 C286.673874,308.077678 285.059459,330.564164 281.548749,339.334535 Z"
                          id="Path"
                          fill="#444053"></path>
                    <path d="M250.375175,403.911111 C250.75956,403.911111 259.856657,404.67988 263.187988,404.007207 C266.519319,403.334535 250.375175,403.911111 250.375175,403.911111 Z"
                          id="Path"
                          fill="#000000"
                          opacity="0.1"></path>
                    <path d="M251.047848,409.273273 C251.047848,409.273273 263.610811,411.477077 264.251451,410.33033 C264.892092,409.183584 251.047848,409.273273 251.047848,409.273273 Z"
                          id="Path"
                          fill="#000000"
                          opacity="0.1"></path>
                    <path d="M212.654254,406.973373 C212.654254,406.973373 219.163163,407.261662 222.705906,408.895295 C226.248649,410.528929 212.654254,406.973373 212.654254,406.973373 Z"
                          id="Path"
                          fill="#000000"
                          opacity="0.1"></path>
                    <path d="M189.001802,245.935536 C189.001802,245.935536 190.052452,265.942743 189.482282,269.485485 C189.482282,269.485485 191.775776,285.668068 193.691291,289.780981 C195.606807,293.893894 199.726126,299.07027 199.726126,299.07027 L205.376577,259.350551 L204.031231,245.743343 L189.001802,245.935536 Z"
                          id="Path"
                          fill="#EFB7B9"></path>
                    <circle id="Oval"
                            fill="#EFB7B9"
                            cx="248.363564"
                            cy="132.67027"
                            r="22.1149149"></circle>
                    <path d="M236.876877,143.003804 C236.876877,143.003804 229.983584,156.508509 223.09029,162.825225 C216.196997,169.141942 264.45005,176.323524 265.596797,176.323524 C266.743544,176.323524 256.98018,147.603604 258.703504,144.137738 C260.426827,140.671872 236.876877,143.003804 236.876877,143.003804 Z"
                          id="Path"
                          fill="#EFB7B9"></path>
                    <path d="M285.706507,296.6999 C284.623596,297.526813 283.42858,298.195504 282.157357,298.685886 C273.354955,302.132533 263.777377,306.918118 257.268468,305.009009 C250.75956,303.0999 236.972973,305.009009 236.972973,305.009009 C236.972973,305.009009 209.201201,302.709109 203.65966,304.048048 C201.135536,304.656657 199.175175,304.631031 197.893894,304.195395 C198.143744,301.882683 198.361562,300.409209 198.361562,300.409209 C198.361562,300.409209 280.824825,287.051852 284.111311,290.069269 C284.892893,290.78038 285.392593,293.221221 285.706507,296.6999 Z"
                          id="Path"
                          fill="#000000"
                          opacity="0.1"></path>
                    <path d="M291.734935,283.938338 C291.734935,283.938338 290.972573,293.515916 282.157357,296.962563 C273.342142,300.409209 263.777377,305.194795 257.268468,303.285686 C250.75956,301.376577 236.972973,303.285686 236.972973,303.285686 C236.972973,303.285686 209.201201,300.985786 203.65966,302.324725 C198.118118,303.663664 195.228829,301.946747 196.952152,299.454655 C198.675475,296.962563 198.48969,288.73033 198.48969,285.283684 C198.48969,281.837037 196.567768,267.858258 198.291091,265.366166 C200.014414,262.874074 201.545546,253.302903 204.992192,251.765365 C206.040488,251.323912 206.832107,250.430984 207.144745,249.337337 C207.429633,248.184611 207.414193,246.978091 207.0999,245.833033 C207.0999,245.833033 206.516917,245.352553 205.716116,244.641441 C203.685285,242.828428 200.251451,239.465065 201.353353,238.363163 C202.884484,236.825626 201.353353,226.87007 201.353353,226.87007 C201.353353,226.87007 197.714515,219.214414 199.05986,216.344344 C200.405205,213.474274 187.374575,198.342342 187.374575,198.342342 C187.374575,198.342342 187.374575,172.306707 203.076677,171.153554 C203.076677,171.153554 214.185385,171.537938 215.524324,166.56016 C216.863263,161.582382 225.672072,158.705906 225.672072,158.705906 L245.781782,163.113514 C245.781782,163.113514 263.585185,166.957357 266.846046,164.644645 C270.106907,162.331932 272.611812,167.706907 272.611812,167.706907 C272.611812,167.706907 283.714114,168.283483 284.860861,170.583383 C286.007608,172.883283 281.228428,195.28008 281.228428,195.28008 C281.228428,195.28008 273.181982,194.517718 273.758559,203.134334 C274.335135,211.750951 270.657858,222.667467 270.657858,222.667467 C270.657858,222.667467 270.081281,228.984184 270.465666,230.323123 C270.824424,231.55956 269.70971,236.377177 269.53033,237.12032 L269.53033,237.216416 C269.53033,237.216416 268.72953,240.41962 269.767367,241.55996 C269.86355,241.663133 269.976108,241.749717 270.100501,241.816216 C271.638038,242.578579 273.944344,250.048448 273.944344,250.048448 C275.139937,251.498488 275.754118,253.341031 275.667668,255.218418 C275.481882,258.287087 276.628629,265.558358 281.606406,269.773774 C286.584184,273.989189 291.734935,283.938338 291.734935,283.938338 Z"
                          id="Path"
                          fill="#A36468"></path>
                    <path d="M206.331131,239.593193 L206.331131,240.406807 L205.985185,249.375776 C205.985185,249.375776 194.203804,250.33033 187.790991,248.735135 C181.378178,247.13994 184.075275,240.022422 184.331532,238.548949 C184.333878,238.529801 184.333878,238.510439 184.331532,238.491291 C184.517317,237.145946 186.253453,225.947548 186.253453,224.128128 C186.253453,222.308709 186.253453,214.838839 185.965165,211.392192 C185.676877,207.945546 187.374575,198.342342 187.374575,198.342342 L188.617417,196.817618 L202.109309,201.987588 L206.331131,239.593193 Z"
                          id="Path"
                          fill="#A36468"></path>
                    <path d="M206.299099,240.426026 L205.953153,249.394995 C205.953153,249.394995 194.171772,250.34955 187.758959,248.754354 C181.346146,247.159159 184.043243,240.041642 184.299499,238.568168 L206.299099,240.426026 Z"
                          id="Path"
                          fill="#000000"
                          opacity="0.1"></path>
                    <path d="M207.144745,249.343744 C207.429633,248.191018 207.414193,246.984498 207.0999,245.839439 C207.0999,245.839439 206.516917,245.358959 205.716116,244.647848 C215.857457,243.232032 256.019219,237.722523 269.543143,237.12032 L269.543143,237.216416 C269.543143,237.216416 268.742342,240.41962 269.78018,241.55996 L207.144745,249.343744 Z"
                          id="Path"
                          fill="#000000"
                          opacity="0.1"></path>
                    <path d="M271.055055,256.24985 C271.055055,256.24985 273.547147,270.343944 264.257852,275.302573 C264.251451,275.328128 269.523924,268.338739 271.055055,256.24985 Z"
                          id="Path"
                          fill="#000000"
                          opacity="0.1"></path>
                    <path d="M210.258258,275.706106 C210.258258,275.706106 232.680681,271.862262 237.069069,274.847648 C241.457457,277.833033 210.258258,275.706106 210.258258,275.706106 Z"
                          id="Path"
                          fill="#000000"
                          opacity="0.1"></path>
                    <path d="M263.303303,188.482883 C263.303303,188.482883 259.856657,202.653854 262.438438,205.908308 C265.02022,209.162763 263.303303,188.482883 263.303303,188.482883 Z"
                          id="Path"
                          fill="#000000"
                          opacity="0.1"></path>
                    <path d="M198.387187,176.9001 C198.387187,176.9001 201.545546,182.166166 199.63003,187.624424 C197.714515,193.082683 198.387187,176.9001 198.387187,176.9001 Z"
                          id="Path"
                          fill="#000000"
                          opacity="0.1"></path>
                    <path d="M191.859059,223.051852 C191.859059,223.051852 195.882282,225.441441 194.543343,229.176376 C193.204404,232.911311 191.859059,223.051852 191.859059,223.051852 Z"
                          id="Path"
                          fill="#000000"
                          opacity="0.1"></path>
                    <path d="M191.493894,212.135335 C191.493894,212.135335 195.222422,214.146947 195.702903,217.113113 C196.183383,220.079279 191.493894,212.135335 191.493894,212.135335 Z"
                          id="Path"
                          fill="#000000"
                          opacity="0.1"></path>
                    <path d="M246.832432,326.643443 C246.832432,326.643443 270.292693,329.039439 274.982182,323.485085 C274.982182,323.517117 253.821822,327.700501 246.832432,326.643443 Z"
                          id="Path"
                          fill="#000000"
                          opacity="0.1"></path>
                    <path d="M206.331131,325.304505 C206.331131,325.304505 231.514715,331.243243 236.492492,326.547347 C236.492492,326.547347 214.851652,328.174575 206.331131,325.304505 Z"
                          id="Path"
                          fill="#000000"
                          opacity="0.1"></path>
                    <path d="M248.651852,334.408008 C248.651852,334.408008 259.183984,334.408008 264.065666,334.696296 C268.947347,334.984585 248.651852,334.408008 248.651852,334.408008 Z"
                          id="Path"
                          fill="#000000"
                          opacity="0.1"></path>
                    <path d="M208.054454,338.892492 C208.054454,338.892492 213.224424,344.735135 219.067067,343.684484 C224.90971,342.633834 208.054454,338.892492 208.054454,338.892492 Z"
                          id="Path"
                          fill="#000000"
                          opacity="0.1"></path>
                    <path d="M218.208609,99.7093093 C216.587788,102.227027 216.53013,105.141942 216.107307,107.935135 C215.120721,114.463263 211.923924,120.786386 206.920521,126.116517 C202.327127,130.998198 196.02963,135.425025 194.838038,141.389389 C193.710511,147.052653 197.535135,152.504505 199.54034,158.046046 C204.825626,172.582182 197.445445,187.829429 195.292893,202.833233 C194.697097,206.978178 195.414615,212.276276 200.520521,213.653654 C202.115716,214.089289 203.941542,214.031632 205.376577,214.723524 C207.298498,215.646046 207.887888,217.561562 208.24024,219.284885 C209.525272,225.449243 209.969216,231.759283 209.55996,238.042843 C209.329329,241.566366 209.073073,245.621622 212.404404,248.043243 C213.916316,249.151552 215.953554,249.715315 217.92032,250.247047 C223.167167,251.662863 229.951552,252.80961 233.487888,249.484685 C234.974174,248.094494 235.531532,246.134134 237.382983,245.032232 C240.156957,243.385786 244.09049,244.500501 247.581982,244.673473 C254.750751,245.032232 261.336537,240.82963 264.161762,235.762162 C266.986987,230.694695 266.724324,224.871271 265.699299,219.406607 C264.674274,213.941942 262.842042,208.515716 262.713914,202.967768 C262.669069,201.045846 262.842042,199.091892 263.943944,197.387788 C266.077277,194.088488 271.042242,192.589389 274.437638,189.994795 C280.799199,185.125926 280.77998,177.14995 278.467267,170.474474 C276.154555,163.798999 272.003203,157.398999 271.490691,150.499299 C271.261957,148.831378 271.59318,147.134705 272.432432,145.675275 C273.342142,144.272272 274.930931,143.221622 276.276276,142.062062 C285.559159,134.220621 284.463664,121.343744 276.788789,112.528529 C268.293894,102.758759 229.804204,81.7137137 218.208609,99.7093093 Z"
                          id="Path"
                          fill="#E3787D"></path>
                    <g id="Group"
                       opacity="0.1"
                       transform="translate(194.114114, 121.721722)"
                       fill="#000000">
                        <path d="M6.60500501,42.3591592 C7.32892893,36.5357357 7.19439439,30.7635636 5.13793794,25.0938939 C4.12572573,22.3135135 2.65865866,19.5523524 1.58878879,16.7655656 C1.05435739,17.7731728 0.666078399,18.8517256 0.435635636,19.9687688 C-0.691891892,25.632032 3.13273273,31.0838839 5.13793794,36.6254254 C5.81296024,38.4841964 6.30432764,40.4046061 6.60500501,42.3591592 Z"
                              id="Path"></path>
                        <path d="M15.1575576,105.090691 C15.5657734,98.8074279 15.1240141,92.4978135 13.8442442,86.3327327 C13.4854855,84.6094094 12.8960961,82.7003003 10.9741742,81.7777778 C9.53913914,81.0858859 7.71331331,81.1371371 6.11811812,80.7079079 C4.13197568,80.2317494 2.47696864,78.8651864 1.63363363,77.005005 C1.33893894,78.4656657 1.08268268,79.9199199 0.871271271,81.3805806 C0.275475475,85.5255255 0.992992993,90.8236236 6.0988989,92.201001 C7.69409409,92.6302302 9.51991992,92.5725726 10.954955,93.2644645 C12.8768769,94.186987 13.4662663,96.1025025 13.825025,97.8258258 C14.4127132,100.684946 14.8235031,103.577591 15.0550551,106.487287 C15.0998999,106.013213 15.1255255,105.551952 15.1575576,105.090691 Z"
                              id="Path"></path>
                        <path d="M69.7657658,102.816416 C66.9341341,107.903103 60.3483483,112.086486 53.1795796,111.727728 C49.6880881,111.548348 45.7545546,110.446446 42.986987,112.086486 C41.1355355,113.181982 40.5717718,115.148749 39.0854855,116.538939 C35.5491491,119.838238 28.7647648,118.717117 23.5179179,117.301301 C21.5511512,116.763163 19.5203203,116.205806 18.002002,115.097497 C16.5550604,114.033291 15.578677,112.448104 15.2792793,110.677077 C15.3177177,112.643844 15.2792793,114.617017 15.1575576,116.583784 C14.9269269,120.107307 14.6706707,124.162563 18.002002,126.590591 C19.5203203,127.692492 21.5511512,128.256256 23.5179179,128.787988 C28.7647648,130.203804 35.5491491,131.350551 39.0854855,128.025626 C40.5717718,126.635435 41.1355355,124.675075 42.986987,123.541141 C45.7545546,121.894695 49.6880881,123.009409 53.1795796,123.182382 C60.3483483,123.541141 66.9341341,119.338539 69.7657658,114.271071 C72.4820821,109.376577 72.3603604,103.841441 71.4122122,98.5561562 C71.0550628,100.04307 70.5013749,101.475764 69.7657658,102.816416 Z"
                              id="Path"></path>
                        <path d="M81.8994995,9.14194194 C80.5285285,10.2950951 78.9397397,11.3521522 78.0556557,12.7551552 C77.2164032,14.2145849 76.8851802,15.9112581 77.1139139,17.5791792 C77.2999767,19.6755875 77.7432116,21.7411481 78.4336336,23.7293293 C79.5005232,22.5915035 80.6692191,21.5536157 81.9251251,20.6286286 C88.2034034,15.3305305 89.7281281,7.72612613 87.6908909,0.627827828 C86.6159569,3.96208348 84.6057636,6.91733445 81.8994995,9.14194194 Z"
                              id="Path"></path>
                        <path d="M80.0352352,57.0426426 C76.6462462,59.6372372 71.6748749,61.1427427 69.5479479,64.442042 C68.4396396,66.1461461 68.2666667,68.1129129 68.3115115,70.0156156 C68.3902892,72.2561467 68.6646725,74.485511 69.1315315,76.6782783 C69.2527668,76.4190637 69.3919089,76.1686078 69.5479479,75.9287287 C71.6748749,72.6294294 76.6462462,71.1303303 80.0352352,68.5357357 C85.8458458,64.0896897 86.3327327,57.0554555 84.6158158,50.7835836 C83.7447414,53.2787032 82.1500551,55.457736 80.0352352,57.0426426 Z"
                              id="Path"></path>
                    </g>
                    <path d="M308.968168,192.41001 C308.968168,192.41001 325.535135,191.551552 326.97017,184.562162 C328.405205,177.572773 322.485686,170.468068 321.037838,169.718519 C319.58999,168.968969 303.971171,157.078679 303.971171,157.078679 L278.793994,140.998599 C278.793994,140.998599 266.730731,106.404004 264.059259,119.646046 C261.387788,132.888088 271.817417,150.473674 271.817417,150.473674 C271.817417,150.473674 286.27027,159.762963 287.897497,162.536937 C289.524725,165.310911 299.486687,172.588589 299.486687,172.588589 L308.968168,192.41001 Z"
                          id="Path"
                          fill="#EFB7B9"></path>
                    <path d="M317.873073,181.109109 C313.952352,191.071071 308.872072,194.998198 308.872072,194.998198 L306.046847,194.998198 L281.209209,195.254454 L278.345546,187.432232 L282.368769,170.480881 L284.854454,170.583383 C284.854454,170.583383 287.827027,172.114515 289.64004,172.114515 C291.453053,172.114515 295.008609,172.018418 296.046446,172.492492 C296.191443,172.563314 296.354687,172.587913 296.514114,172.562963 C297.455856,172.466867 298.436036,171.057457 298.436036,171.057457 C298.436036,171.057457 321.8002,171.153554 317.873073,181.109109 Z"
                          id="Path"
                          fill="#A36468"></path>
                    <path d="M317.873073,181.109109 C313.952352,191.071071 308.872072,194.998198 308.872072,194.998198 L306.046847,194.998198 C307.52032,191.051852 310.627427,182.954154 311.812613,181.083483 C312.972172,179.315315 302.568168,174.914114 296.482082,172.537337 C297.423824,172.441241 298.404004,171.031832 298.404004,171.031832 C298.404004,171.031832 321.8002,171.153554 317.873073,181.109109 Z"
                          id="Path"
                          fill="#000000"
                          opacity="0.1"></path>
                    <ellipse id="Oval"
                             fill="#304FFE"
                             opacity="0.1"
                             cx="58.182983"
                             cy="489.539139"
                             rx="28.3035035"
                             ry="5.53513514"></ellipse>
                    <ellipse id="Oval"
                             fill="#304FFE"
                             opacity="0.1"
                             cx="529.989189"
                             cy="453.029029"
                             rx="20.6158158"
                             ry="4.02962963"></ellipse>
                    <ellipse id="Oval"
                             fill="#304FFE"
                             opacity="0.1"
                             cx="619.352152"
                             cy="469.358959"
                             rx="20.6158158"
                             ry="4.02962963"></ellipse>
                    <ellipse id="Oval"
                             fill="#304FFE"
                             opacity="0.1"
                             cx="480.98018"
                             cy="502.992593"
                             rx="20.6158158"
                             ry="4.02962963"></ellipse>
                    <path d="M84.9297297,335.887888 C84.9297297,335.887888 89.567968,341.954755 82.78999,351.103103 C76.012012,360.251451 70.432032,367.977578 72.6998999,373.685686 C72.6998999,373.685686 82.9181181,356.689489 91.24004,356.452452 C99.561962,356.215415 94.0844845,346.112513 84.9297297,335.887888 Z"
                          id="Path"
                          fill="#304FFE"></path>
                    <path d="M84.9297297,335.887888 C85.3355199,336.480208 85.6547821,337.127361 85.8778779,337.80981 C93.9947948,347.348949 98.3191191,356.247447 90.5161161,356.471672 C83.2512513,356.676677 74.5321321,369.675275 72.4436436,372.955355 C72.5104996,373.210384 72.593961,373.460768 72.6934935,373.704905 C72.6934935,373.704905 82.9117117,356.708709 91.2336336,356.471672 C99.5555556,356.234635 94.0844845,346.112513 84.9297297,335.887888 Z"
                          id="Path"
                          fill="#000000"
                          opacity="0.1"></path>
                    <path d="M93.5463463,343.614014 C93.5463463,345.747347 93.3093093,347.457858 93.0146146,347.457858 C92.7199199,347.457858 92.4764765,345.728128 92.4764765,343.614014 C92.4764765,341.4999 92.7775776,342.486486 93.0722723,342.486486 C93.366967,342.486486 93.5463463,341.455055 93.5463463,343.614014 Z"
                          id="Path"
                          fill="#FFD037"></path>
                    <path d="M96.5061061,346.163764 C94.6354354,347.182382 93.0018018,347.803804 92.8608609,347.541141 C92.7199199,347.278478 94.1421421,346.25986 95.9935936,345.222022 C97.845045,344.184184 97.1275275,344.946547 97.2748749,345.222022 C97.4222222,345.497497 98.3767768,345.138739 96.5061061,346.163764 Z"
                          id="Path"
                          fill="#FFD037"></path>
                    <path d="M60.4508509,335.887888 C60.4508509,335.887888 55.8126126,341.954755 62.5905906,351.103103 C69.3685686,360.251451 74.9485485,367.977578 72.6998999,373.685686 C72.6998999,373.685686 62.4496496,356.689489 54.1213213,356.452452 C45.792993,356.215415 51.2960961,346.112513 60.4508509,335.887888 Z"
                          id="Path"
                          fill="#304FFE"></path>
                    <path d="M60.4508509,335.887888 C60.0450607,336.480208 59.7257985,337.127361 59.5027027,337.80981 C51.3857858,347.348949 47.0614615,356.247447 54.8644645,356.471672 C62.1293293,356.676677 70.8804805,369.675275 72.9369369,372.955355 C72.8693267,373.209401 72.7880608,373.459614 72.6934935,373.704905 C72.6934935,373.704905 62.4432432,356.708709 54.1149149,356.471672 C45.7865866,356.234635 51.2960961,346.112513 60.4508509,335.887888 Z"
                          id="Path"
                          fill="#000000"
                          opacity="0.1"></path>
                    <path d="M51.8342342,343.614014 C51.8342342,345.747347 52.0712713,347.457858 52.365966,347.457858 C52.6606607,347.457858 52.9041041,345.728128 52.9041041,343.614014 C52.9041041,341.4999 52.603003,342.486486 52.3083083,342.486486 C52.0136136,342.486486 51.8342342,341.455055 51.8342342,343.614014 Z"
                          id="Path"
                          fill="#FFD037"></path>
                    <path d="M48.8744745,346.163764 C50.7515516,347.182382 52.3787788,347.803804 52.5261261,347.541141 C52.6734735,347.278478 51.2448448,346.25986 49.386987,345.222022 C47.5291291,344.184184 48.2530531,344.946547 48.1057057,345.222022 C47.9583584,345.497497 47.0038038,345.138739 48.8744745,346.163764 Z"
                          id="Path"
                          fill="#FFD037"></path>
                    <ellipse id="Oval"
                             fill="#304FFE"
                             opacity="0.1"
                             cx="72.6870871"
                             cy="412.617417"
                             rx="48.4644645"
                             ry="7.43783784"></ellipse>
                    <path d="M97.6336336,365.517518 L97.403003,367.439439 L97.0762763,370.110911 L96.9417417,371.225626 L96.615015,373.903504 L96.4740741,375.018218 L96.1473473,377.68969 L92.4444444,408.081682 C92.1113113,410.797998 87.6780781,412.912112 82.3223223,412.912112 L63.0902903,412.912112 C57.7345345,412.912112 53.3077077,410.797998 52.9745746,408.081682 L49.2652653,377.683283 L48.9385385,375.011812 L48.804004,373.897097 L48.4708709,371.219219 L48.3363363,370.104505 L48.0096096,367.433033 L47.778979,365.511111 C47.5931932,363.973574 49.9891892,362.679479 53.0194194,362.679479 L92.4316316,362.679479 C95.4234234,362.685886 97.8258258,363.97998 97.6336336,365.517518 Z"
                          id="Path"
                          fill="#65617D"></path>
                    <polygon id="Path"
                             fill="#9D9CB5"
                             points="97.3965966 367.407407 97.0762763 370.085285 48.2978979 370.085285 47.9775776 367.407407"></polygon>
                    <polygon id="Path"
                             fill="#9D9CB5"
                             points="96.9353353 371.2 96.615015 373.871471 48.7655656 373.871471 48.4388388 371.2"></polygon>
                    <polygon id="Path"
                             fill="#9D9CB5"
                             points="96.4740741 374.986186 96.1473473 377.657658 49.2268268 377.657658 48.9001001 374.986186"></polygon>
                    <circle id="Oval"
                            fill="#304FFE"
                            opacity="0.1"
                            cx="115.308909"
                            cy="80.4132132"
                            r="20.1801802"></circle>
                    <circle id="Oval"
                            fill="#304FFE"
                            opacity="0.1"
                            cx="73.0266266"
                            cy="32.3651652"
                            r="12.4924925"></circle>
                    <circle id="Oval"
                            fill="#304FFE"
                            opacity="0.1"
                            cx="7.68768769"
                            cy="60.233033"
                            r="7.68768769"></circle>
                </g>
            </g>
        </g>
    </g>
</svg>
