<?xml version="1.0" encoding="UTF-8"?>
<svg width="640px"
     height="469px"
     viewBox="0 0 640 469"
     version="1.1"
     xmlns="http://www.w3.org/2000/svg"
     xmlns:xlink="http://www.w3.org/1999/xlink">
    <!-- Generator: Sketch 53.2 (72643) - https://sketchapp.com -->
    <title>undraw_server_status_5pbv</title>
    <desc>Created with Sketch.</desc>
    <defs>
        <linearGradient x1="50.0011621%"
                        y1="100.00118%"
                        x2="50.0011621%"
                        y2="-0.0158321861%"
                        id="linearGradient-1">
            <stop stop-color="#808080"
                  stop-opacity="0.25"
                  offset="0%"></stop>
            <stop stop-color="#808080"
                  stop-opacity="0.12"
                  offset="54%"></stop>
            <stop stop-color="#808080"
                  stop-opacity="0.1"
                  offset="100%"></stop>
        </linearGradient>
    </defs>
    <g id="Page-1"
       stroke="none"
       stroke-width="1"
       fill="none"
       fill-rule="evenodd">
        <g id="500"
           transform="translate(-641.000000, -252.000000)">
            <g transform="translate(633.000000, 252.000000)"
               id="undraw_server_status_5pbv">
                <g transform="translate(8.000000, 0.000000)">
                    <path d="M208.660606,297.563636 C229.818182,289.242424 263.030303,287.545455 293.260606,288.212121 C388.218182,290.290909 473.933333,310.515152 548.072727,333.393939 C574.915152,341.678788 601.339394,350.606061 618.763636,362.012121 C654.230303,385.230303 643.709091,417.393939 594.393939,436.521212 C577.612121,443.030303 557.272727,448.036364 536.387879,452.436364 C499.248485,460.30303 459.2,466.612121 417.054545,468.430303 C387.006061,469.709091 356.581818,468.666667 326.709091,466.878788 C243.236364,461.866667 161.309091,450.854545 92.6363636,431.927273 C62.5151515,423.642424 34.1272727,413.339394 21.7272727,399.927273 C9.32727273,386.515152 17.2545455,369.533333 48.0121212,361.593939 C60.7393939,358.315152 75.9393939,356.830303 90.830303,355.442424 C112.745455,353.393939 135.012121,351.369697 154.787879,347.206061 C175.218182,342.90303 199.406061,334.581818 195.363636,325.060606 C191.006061,314.842424 187.527273,305.872727 208.660606,297.563636 Z"
                          id="Path"
                          fill="#304FFE"
                          opacity="0.1"></path>
                    <path d="M305.078788,18.2606061 L302.769697,152.2 C302.769697,152.2 386.357576,152.2 457.472727,175.290909 L458.860606,39.9454545 C458.860606,39.9454545 344.793939,12.7212121 305.078788,18.2606061 Z"
                          id="Path"
                          fill="#000000"
                          opacity="0.1"></path>
                    <path d="M303.866667,16.4424242 L301.557576,150.381818 C301.557576,150.381818 385.145455,150.381818 456.260606,173.472727 L457.648485,38.1272727 C457.648485,38.1272727 343.581818,10.9030303 303.866667,16.4424242 Z"
                          id="Path"
                          fill="#FFFFFF"></path>
                    <path d="M269.478788,18.1575758 L271.787879,152.09697 C271.787879,152.09697 188.2,152.09697 117.084848,175.187879 L115.69697,39.8787879 C115.69697,39.8787879 229.763636,12.6181818 269.478788,18.1575758 Z"
                          id="Path"
                          fill="#000000"
                          opacity="0.1"></path>
                    <path d="M270.690909,16.3393939 L273,150.278788 C273,150.278788 189.412121,150.278788 118.29697,173.369697 L116.909091,38.0606061 C116.909091,38.0606061 230.975758,10.8 270.690909,16.3393939 Z"
                          id="Path"
                          fill="#FFFFFF"></path>
                    <path d="M479.036364,59.0424242 L479.036364,191.581818 C479.036364,191.581818 506.309091,188.351515 563.545455,259.006061 L568.630303,126.466667 C568.630303,126.466667 509.054545,62.2787879 479.036364,59.0424242 Z"
                          id="Path"
                          fill="#000000"
                          opacity="0.1"></path>
                    <path d="M477.824242,57.830303 L477.824242,190.369697 C477.824242,190.369697 505.09697,187.139394 562.333333,257.793939 L567.418182,125.254545 C567.418182,125.254545 507.842424,61.0666667 477.824242,57.830303 Z"
                          id="Path"
                          fill="#FFFFFF"></path>
                    <path d="M97.0060606,62.9757576 L97.0060606,195.521212 C97.0060606,195.521212 69.7333333,192.290909 12.4969697,262.945455 L7.41818182,130.406061 C7.41818182,130.406061 66.9878788,66.2181818 97.0060606,62.9757576 Z"
                          id="Path"
                          fill="#000000"
                          opacity="0.1"></path>
                    <path d="M98.2181818,61.1575758 L98.2181818,193.70303 C98.2181818,193.70303 70.9454545,190.472727 13.7090909,261.127273 L8.63030303,128.587879 C8.63030303,128.587879 68.2,64.4 98.2181818,61.1575758 Z"
                          id="Path"
                          fill="#FFFFFF"></path>
                    <path d="M404.884848,284.654545 C404.884848,289.169697 376.212121,315.260606 310.945455,315.260606 C245.678788,315.260606 210.339394,290.078788 210.339394,285.563636 C210.339394,281.048485 246.890909,292.230303 312.157576,292.230303 C377.424242,292.230303 404.884848,280.133333 404.884848,284.654545 Z"
                          id="Path"
                          fill="#F7F7FD"></path>
                    <ellipse id="Oval"
                             fill="#304FFE"
                             opacity="0.1"
                             cx="191.581818"
                             cy="221.515152"
                             rx="6.94545455"
                             ry="1"></ellipse>
                    <ellipse id="Oval"
                             fill="#304FFE"
                             opacity="0.1"
                             cx="164.981818"
                             cy="224.212121"
                             rx="6.94545455"
                             ry="1"></ellipse>
                    <ellipse id="Oval"
                             fill="#304FFE"
                             opacity="0.1"
                             cx="133.660606"
                             cy="220.563636"
                             rx="6.94545455"
                             ry="1"></ellipse>
                    <ellipse id="Oval"
                             fill="#304FFE"
                             opacity="0.1"
                             cx="175.630303"
                             cy="231.890909"
                             rx="4.93333333"
                             ry="1"></ellipse>
                    <ellipse id="Oval"
                             fill="#304FFE"
                             opacity="0.1"
                             cx="148.024242"
                             cy="231.212121"
                             rx="4.93333333"
                             ry="1"></ellipse>
                    <path d="M164.836364,224 C164.836364,224 174.569697,192.078788 163.309091,179.29697 C154.884848,169.733333 145.309091,170.854545 141.066667,172.066667 C138.824062,172.663459 136.956338,174.214357 135.957576,176.309091 C134.460606,179.539394 134.745455,184.793939 145.30303,190.90303 C162.993939,201.145455 164.090909,215.2 164.090909,215.2 L164.836364,224 Z"
                          id="Path"
                          fill="#304FFE"></path>
                    <path d="M142.569697,176.587879 C142.569697,176.587879 171.272727,185.563636 164.836364,224"
                          id="Path"
                          stroke="#565987"></path>
                    <path d="M159.333333,179.806061 C159.333333,179.806061 155.381818,182.466667 156.636364,186.472727"
                          id="Path"
                          stroke="#565987"></path>
                    <path d="M145.448485,182.175758 C145.448485,182.175758 147.872727,179.715152 150.8,181.072727"
                          id="Path"
                          stroke="#565987"></path>
                    <path d="M156.824242,194.533333 C156.824242,194.533333 161.066667,192.381818 162.163636,195.078788"
                          id="Path"
                          stroke="#565987"></path>
                    <path d="M167.290909,199.024242 C167.290909,199.024242 164.10303,198.769697 164.048485,200.290909"
                          id="Path"
                          stroke="#565987"></path>
                    <path d="M165.230303,224.254545 C165.230303,224.254545 153.824242,201.054545 150.684848,201.563636 C149.2,201.806061 148.515152,203.266667 148.2,204.739394 C147.810183,206.639457 148.022019,208.613766 148.806061,210.387879 C150.448485,214.09697 154.793939,221.157576 165.230303,224.254545 Z"
                          id="Path"
                          fill="#304FFE"></path>
                    <path d="M150.763636,205.963636 C150.763636,205.963636 162.733333,223.321212 165.048485,224.084848"
                          id="Path"
                          stroke="#565987"></path>
                    <path d="M149.678788,208.672727 L152.472727,208.672727"
                          id="Path"
                          stroke="#565987"></path>
                    <path d="M153.024242,215.024242 L157.4,215.212121"
                          id="Path"
                          stroke="#565987"></path>
                    <path d="M155.690909,209.945455 L155.212121,212.224242"
                          id="Path"
                          stroke="#565987"></path>
                    <path d="M160.345455,216.884848 L160.260606,218.957576"
                          id="Path"
                          stroke="#565987"></path>
                    <path d="M164.890909,224.254545 C164.890909,224.254545 176.290909,201.054545 179.436364,201.563636 C180.927273,201.806061 181.612121,203.266667 181.921212,204.739394 C182.308196,206.639591 182.096453,208.613034 181.315152,210.387879 C179.672727,214.09697 175.327273,221.157576 164.890909,224.254545 Z"
                          id="Path"
                          fill="#304FFE"></path>
                    <path d="M179.339394,205.963636 C179.339394,205.963636 167.369697,223.321212 165.060606,224.084848"
                          id="Path"
                          stroke="#565987"></path>
                    <path d="M180.442424,208.672727 L177.648485,208.672727"
                          id="Path"
                          stroke="#565987"></path>
                    <path d="M177.09697,215.024242 L172.715152,215.212121"
                          id="Path"
                          stroke="#565987"></path>
                    <path d="M174.430303,209.945455 L174.909091,212.224242"
                          id="Path"
                          stroke="#565987"></path>
                    <path d="M169.775758,216.884848 L169.860606,218.957576"
                          id="Path"
                          stroke="#565987"></path>
                    <path d="M145.309091,229.672727 C144.998232,229.41891 144.772037,229.076447 144.660606,228.690909 C144.555299,228.293558 144.745703,227.877207 145.115152,227.69697 C145.527273,227.533333 145.975758,227.824242 146.327273,228.115152 C146.618587,228.458365 147.04101,228.662976 147.490909,228.678788 C147.029221,228.259852 146.820064,227.630084 146.939394,227.018182 C146.96296,226.893733 147.017111,226.7771 147.09697,226.678788 C147.327273,226.430303 147.745455,226.539394 148.024242,226.733333 C148.90303,227.339394 149.145455,228.551515 149.151515,229.624242 C149.198878,229.22159 149.198878,228.814774 149.151515,228.412121 C149.114917,228.007672 149.28329,227.611768 149.6,227.357576 C149.808327,227.245307 150.042188,227.188929 150.278788,227.193939 C150.676433,227.137184 151.079495,227.251715 151.387879,227.509091 C151.685869,227.920276 151.668428,228.480861 151.345455,228.872727 C151.018388,229.240625 150.631027,229.550104 150.2,229.787879 C149.87037,229.981557 149.590272,230.249206 149.381818,230.569697 C149.35548,230.613246 149.335097,230.660128 149.321212,230.709091 L146.836364,230.709091 C146.284988,230.430473 145.771695,230.082167 145.309091,229.672727 Z"
                          id="Path"
                          fill="#304FFE"></path>
                    <path d="M188.763636,220.327273 C188.45322,220.075586 188.226986,219.735178 188.115152,219.351515 C188.009109,218.952462 188.199314,218.534011 188.569697,218.351515 C189.020695,218.263776 189.483972,218.425923 189.781818,218.775758 C190.071845,219.119817 190.495585,219.322859 190.945455,219.333333 C190.482726,218.915075 190.273371,218.284708 190.393939,217.672727 C190.414704,217.549206 190.469241,217.433838 190.551515,217.339394 C190.781818,217.090909 191.2,217.193939 191.478788,217.387879 C192.357576,217.993939 192.6,219.206061 192.606061,220.284848 C192.652982,219.88217 192.652982,219.475405 192.606061,219.072727 C192.569462,218.668278 192.737835,218.272374 193.054545,218.018182 C193.262307,217.905008 193.496961,217.850535 193.733333,217.860606 C194.131188,217.800671 194.535535,217.915567 194.842424,218.175758 C195.141609,218.584365 195.124114,219.144204 194.8,219.533333 C194.472933,219.901231 194.085572,220.21071 193.654545,220.448485 C193.326227,220.643895 193.046487,220.911201 192.836364,221.230303 C192.810026,221.273852 192.789643,221.320734 192.775758,221.369697 L190.290909,221.369697 C189.737925,221.091349 189.224347,220.740811 188.763636,220.327273 L188.763636,220.327273 Z"
                          id="Path"
                          fill="#304FFE"></path>
                    <path d="M174.278788,229.672727 C173.967929,229.41891 173.741734,229.076447 173.630303,228.690909 C173.527487,228.293774 173.717192,227.87895 174.084848,227.69697 C174.50303,227.533333 174.945455,227.824242 175.29697,228.115152 C175.588753,228.457759 176.010892,228.662232 176.460606,228.678788 C176.00009,228.25925 175.793098,227.629074 175.915152,227.018182 C175.933707,226.893335 175.986109,226.775956 176.066667,226.678788 C176.29697,226.430303 176.715152,226.539394 176.993939,226.733333 C177.872727,227.339394 178.121212,228.551515 178.127273,229.624242 C178.171466,229.22141 178.171466,228.814953 178.127273,228.412121 C178.090674,228.007672 178.259047,227.611768 178.575758,227.357576 C179.15687,227.090021 179.835836,227.14756 180.363636,227.509091 C180.666006,227.918921 180.648473,228.482486 180.321212,228.872727 C179.995398,229.241942 179.607793,229.551616 179.175758,229.787879 C178.848569,229.984772 178.56913,230.251791 178.357576,230.569697 C178.333758,230.614504 178.313493,230.661112 178.29697,230.709091 L175.818182,230.709091 C175.261902,230.432502 174.744347,230.08407 174.278788,229.672727 L174.278788,229.672727 Z"
                          id="Path"
                          fill="#304FFE"></path>
                    <path d="M133.187879,210.787879 C133.187879,210.787879 132.260606,212 133.618182,213.818182 C134.975758,215.636364 136.10303,217.206061 135.648485,218.351515 C135.648485,218.351515 133.593939,214.939394 131.927273,214.890909 C130.260606,214.842424 131.369697,212.836364 133.187879,210.787879 Z"
                          id="Path"
                          fill="#304FFE"></path>
                    <path d="M133.187879,210.787879 C133.106564,210.905071 133.043237,211.033768 133,211.169697 C131.369697,213.078788 130.50303,214.866667 132.066667,214.909091 C133.527273,214.951515 135.278788,217.563636 135.70303,218.218182 C135.690516,218.269782 135.674313,218.320418 135.654545,218.369697 C135.654545,218.369697 133.6,214.957576 131.933333,214.909091 C130.266667,214.860606 131.369697,212.836364 133.187879,210.787879 Z"
                          id="Path"
                          fill="#000000"
                          opacity="0.1"></path>
                    <path d="M131.478788,212.333333 C131.478788,212.763636 131.527273,213.109091 131.587879,213.109091 C131.648485,213.109091 131.690909,212.763636 131.690909,212.333333 C131.690909,211.90303 131.636364,212.109091 131.575758,212.109091 C131.515152,212.109091 131.478788,211.909091 131.478788,212.333333 Z"
                          id="Path"
                          fill="#FFD037"></path>
                    <path d="M130.884848,212.848485 C131.260606,213.054545 131.587879,213.175758 131.618182,213.121212 C131.648485,213.066667 131.363636,212.860606 131.012121,212.660606 C130.660606,212.460606 130.781818,212.6 130.757576,212.660606 C130.733333,212.721212 130.509091,212.672727 130.884848,212.848485 Z"
                          id="Path"
                          fill="#FFD037"></path>
                    <path d="M138.121212,210.787879 C138.121212,210.787879 139.054545,212 137.690909,213.818182 C136.327273,215.636364 135.212121,217.206061 135.666667,218.351515 C135.666667,218.351515 137.715152,214.939394 139.387879,214.890909 C141.060606,214.842424 139.957576,212.836364 138.121212,210.787879 Z"
                          id="Path"
                          fill="#304FFE"></path>
                    <path d="M138.121212,210.787879 C138.202527,210.905071 138.265854,211.033768 138.309091,211.169697 C139.939394,213.078788 140.806061,214.866667 139.242424,214.909091 C137.781818,214.951515 136.036364,217.563636 135.606061,218.218182 C135.618575,218.269782 135.634778,218.320418 135.654545,218.369697 C135.654545,218.369697 137.70303,214.957576 139.375758,214.909091 C141.048485,214.860606 139.957576,212.836364 138.121212,210.787879 Z"
                          id="Path"
                          fill="#000000"
                          opacity="0.1"></path>
                    <path d="M139.854545,212.333333 C139.854545,212.763636 139.812121,213.109091 139.751515,213.109091 C139.690909,213.109091 139.642424,212.763636 139.642424,212.333333 C139.642424,211.90303 139.70303,212.109091 139.763636,212.109091 C139.824242,212.109091 139.854545,211.909091 139.854545,212.333333 Z"
                          id="Path"
                          fill="#FFD037"></path>
                    <path d="M140.460606,212.848485 C140.084848,213.054545 139.757576,213.175758 139.733333,213.121212 C139.709091,213.066667 139.981818,212.860606 140.339394,212.660606 C140.69697,212.460606 140.569697,212.6 140.6,212.660606 C140.630303,212.721212 140.818182,212.672727 140.460606,212.848485 Z"
                          id="Path"
                          fill="#FFD037"></path>
                    <path d="M139.557576,218.212121 C139.557576,218.212121 136.951515,218.133333 136.169697,217.575758 C135.387879,217.018182 132.169697,216.363636 131.975758,217.242424 C131.781818,218.121212 128.066667,221.69697 131,221.721212 C133.933333,221.745455 137.824242,221.260606 138.606061,220.787879 C139.387879,220.315152 139.557576,218.212121 139.557576,218.212121 Z"
                          id="Path"
                          fill="#A8A8A8"></path>
                    <path d="M130.951515,221.406061 C133.884848,221.406061 137.775758,220.951515 138.557576,220.472727 C139.163636,220.109091 139.387879,218.806061 139.466667,218.206061 L139.557576,218.206061 C139.557576,218.206061 139.387879,220.30303 138.606061,220.781818 C137.824242,221.260606 133.939394,221.739394 131,221.715152 C130.157576,221.715152 129.860606,221.406061 129.878788,220.957576 C129.993939,221.236364 130.321212,221.4 130.951515,221.406061 Z"
                          id="Path"
                          fill="#000000"
                          opacity="0.2"></path>
                    <ellipse id="Oval"
                             fill="#304FFE"
                             opacity="0.1"
                             cx="118.284848"
                             cy="300.842424"
                             rx="21.0424242"
                             ry="3.10909091"></ellipse>
                    <ellipse id="Oval"
                             fill="#304FFE"
                             opacity="0.1"
                             cx="177.060606"
                             cy="326.587879"
                             rx="21.0424242"
                             ry="3.10909091"></ellipse>
                    <ellipse id="Oval"
                             fill="#304FFE"
                             opacity="0.1"
                             cx="90.6"
                             cy="355.878788"
                             rx="21.0424242"
                             ry="3.10909091"></ellipse>
                    <ellipse id="Oval"
                             fill="#304FFE"
                             opacity="0.1"
                             cx="536.448485"
                             cy="420.218182"
                             rx="21.0424242"
                             ry="3.10909091"></ellipse>
                    <ellipse id="Oval"
                             fill="#304FFE"
                             opacity="0.1"
                             cx="297.630303"
                             cy="348.678788"
                             rx="13.9333333"
                             ry="1.55757576"></ellipse>
                    <ellipse id="Oval"
                             fill="#304FFE"
                             opacity="0.1"
                             cx="497.024242"
                             cy="268.678788"
                             rx="13.9333333"
                             ry="1.55757576"></ellipse>
                    <ellipse id="Oval"
                             fill="#304FFE"
                             opacity="0.1"
                             cx="388.533333"
                             cy="386.860606"
                             rx="13.9333333"
                             ry="1.55757576"></ellipse>
                    <ellipse id="Oval"
                             fill="#304FFE"
                             opacity="0.1"
                             cx="268.266667"
                             cy="376.581818"
                             rx="13.9333333"
                             ry="1.55757576"></ellipse>
                    <ellipse id="Oval"
                             fill="#304FFE"
                             opacity="0.1"
                             cx="155.557576"
                             cy="372.539394"
                             rx="13.9333333"
                             ry="1.55757576"></ellipse>
                    <ellipse id="Oval"
                             fill="#304FFE"
                             opacity="0.1"
                             cx="126.187879"
                             cy="400.442424"
                             rx="13.9333333"
                             ry="1.55757576"></ellipse>
                    <g id="Group"
                       opacity="0.1"
                       transform="translate(214.545455, 103.636364)"
                       fill="#000000">
                        <ellipse id="Oval"
                                 cx="93.8181818"
                                 cy="41.5151515"
                                 rx="92.1939394"
                                 ry="41.1454545"></ellipse>
                        <path d="M187.612121,56.2242424 C183.533333,77.6787879 143.230303,94.5212121 94.1030303,94.5212121 C44.5454545,94.5212121 3.96363636,77.3818182 0.484848485,55.6666667 L0.139393939,55.6666667 L0.139393939,90.630303 C16.3454545,107.563636 52.2242424,119.339394 93.8727273,119.339394 C135.521212,119.339394 171.4,107.563636 187.612121,90.630303 L187.612121,56.2242424 Z"
                              id="Path"></path>
                        <path d="M187.612121,98.769697 C183.533333,120.218182 143.230303,137.066667 94.1030303,137.066667 C44.5454545,137.066667 3.96363636,119.927273 0.484848485,98.2060606 L0.139393939,98.2060606 L0.139393939,133.175758 C16.3454545,150.109091 52.2242424,161.878788 93.8727273,161.878788 C135.521212,161.878788 171.4,150.109091 187.612121,133.175758 L187.612121,98.769697 Z"
                              id="Path"></path>
                        <path d="M187.612121,145.563636 C183.533333,167.018182 143.230303,183.860606 94.1030303,183.860606 C44.5454545,183.860606 3.96363636,166.727273 0.484848485,145.006061 L0.139383558,145.006061 L0.139393939,182.715152 C0.13632637,184.339604 0.813230605,185.89121 2.00606061,186.993939 C18.9757576,202.575758 53.7575758,208.678788 93.8727273,208.678788 C133.987879,208.678788 168.751515,202.575758 185.745455,186.993939 C186.938285,185.89121 187.615189,184.339604 187.612121,182.715152 L187.612121,145.563636 Z"
                              id="Path"></path>
                    </g>
                    <ellipse id="Oval"
                             fill="#304FFE"
                             cx="308.363636"
                             cy="142.727273"
                             rx="92.1939394"
                             ry="41.1454545"></ellipse>
                    <path d="M402.157576,157.436364 C398.078788,178.890909 357.775758,195.733333 308.648485,195.733333 C259.090909,195.733333 218.509091,178.593939 215.030303,156.878788 L214.684848,156.878788 L214.684848,191.842424 C230.890909,208.775758 266.769697,220.551515 308.418182,220.551515 C350.066667,220.551515 385.945455,208.775758 402.157576,191.842424 L402.157576,157.436364 Z"
                          id="Path"
                          fill="#304FFE"></path>
                    <path d="M402.157576,199.981818 C398.078788,221.430303 357.775758,238.278788 308.648485,238.278788 C259.090909,238.278788 218.509091,221.139394 215.030303,199.418182 L214.684848,199.418182 L214.684848,234.387879 C230.890909,251.321212 266.769697,263.090909 308.418182,263.090909 C350.066667,263.090909 385.945455,251.321212 402.157576,234.387879 L402.157576,199.981818 Z"
                          id="Path"
                          fill="#304FFE"></path>
                    <path d="M402.157576,246.775758 C398.078788,268.230303 357.775758,285.072727 308.648485,285.072727 C259.090909,285.072727 218.509091,267.939394 215.030303,246.218182 L214.684838,246.218182 L214.684848,283.927273 C214.681781,285.551726 215.358685,287.103331 216.551515,288.206061 C233.521212,303.787879 268.30303,309.890909 308.418182,309.890909 C348.533333,309.890909 383.29697,303.787879 400.290909,288.206061 C401.483739,287.103331 402.160643,285.551726 402.157576,283.927273 L402.157576,246.775758 Z"
                          id="Path"
                          fill="#304FFE"></path>
                    <ellipse id="Oval"
                             fill="#304FFE"
                             opacity="0.1"
                             cx="444.260606"
                             cy="346.212121"
                             rx="34.5454545"
                             ry="6.21818182"></ellipse>
                    <path d="M424.866667,266.981818 C426.612121,268.012121 429.351515,268.684848 432.8,266.466667 L432.769697,271.381818 C433.012121,274.751515 437.181818,287.036364 437.181818,287.036364 L440.121212,297.139394 C442.230901,304.27937 443.318474,311.682211 443.351515,319.127273 C443.351515,321.587879 443.581818,324.133333 444.290909,326.048485 C445.860606,330.290909 443.684848,335.745455 442.733333,337.757576 C441.141856,338.29571 439.523517,338.750868 437.884848,339.121212 C437.738724,339.156458 437.594998,339.200993 437.454545,339.254545 L437.454545,339.224242 C437.454545,339.224242 433.042424,340.975758 431.078788,340.733333 C429.618182,340.557576 428.70303,342.381818 429.866667,343.721212 C428.916913,344.011122 427.925798,344.142178 426.933333,344.109091 C424.969697,343.866667 423.987879,347.236364 427.666667,348.2 C431.345455,349.163636 452.187879,348.2 452.187879,348.2 C453.391825,347.597039 454.035073,346.255693 453.751515,344.939394 L456.357576,344.830303 C456.357576,344.830303 460.036364,343.145455 456.357576,338.569697 L456.157576,338.715152 L455.375758,336.4 L455.375758,333.278788 C455.375758,333.278788 460.036364,310.854545 458.563636,308.230303 C457.090909,305.606061 456.309091,292.066667 456.309091,292.066667 L456.824242,277.4 C458.151515,274.660606 458.830303,270.357576 459.175758,266.993939 C459.67773,265.391134 459.992949,263.735726 460.115152,262.060606 C460.175758,261.266667 460.224242,260.442424 460.254545,259.581818 C460.274886,257.69366 459.971505,255.815981 459.357576,254.030303 C461.021247,251.562563 462.879702,249.231894 464.915152,247.060606 C466.633551,245.462098 467.459963,243.123239 467.127273,240.8 L465.915152,232.612121 L462.969697,218.672727 C463.339394,214.8 462.533333,212.569697 461.636364,211.309091 C461.848485,210.054545 462.048485,208.806061 462.2,207.545455 C462.848367,202.081742 462.5573,196.547379 461.339394,191.181818 C460.915152,189.315152 460.333333,187.393939 459.018182,185.975758 C457.533333,184.363636 455.121212,183.387879 454.563636,181.284848 C454.48498,180.74877 454.37161,180.218362 454.224242,179.69697 C453.684848,178.321212 451.987879,177.818182 450.49697,177.636364 C447.842424,177.315152 444.006061,177.072727 441.454545,178.115152 C439.215333,179.105229 437.371954,180.816328 436.218182,182.975758 C435.643762,183.863015 435.42718,184.935094 435.612121,185.975758 C435.702868,186.336986 435.843622,186.68377 436.030303,187.006061 C434.262728,191.798066 436.678059,197.12044 441.448485,198.945455 C441.509091,199.133333 441.563636,199.315152 441.606061,199.490909 C441.718191,199.922937 441.799207,200.362447 441.848485,200.806061 C441.8,201.654545 441.745455,202.509091 441.709091,203.363636 L441.618182,203.709091 C439.508307,204.643178 437.45073,205.691186 435.454545,206.848485 C436.921212,209.018182 435.206061,218.169697 435.206061,218.169697 C431.527273,220.333333 427.854545,225.872727 431.775758,231.654545 C435.69697,237.436364 433.490909,243.690909 433.490909,243.690909 L432.884848,253.109091 L432.884848,253.109091 L432.884848,253.109091 L432.763636,254.993939 L432.806061,254.993939 L432.763636,255.709091 L432.866667,255.709091 L432.866667,256.478788 C431.145455,257.115152 428.624242,258.387879 427.127273,260.751515 C426.417991,261.910462 425.555676,262.968479 424.563636,263.89697 C424.094526,264.298512 423.85103,264.903811 423.911397,265.518348 C423.971764,266.132886 424.328389,266.679234 424.866667,266.981818 L424.866667,266.981818 Z M454.472727,241.963636 C454.324927,240.333763 454.626775,238.69456 455.345455,237.224242 L457.078788,237.224242 C457.12988,237.607431 457.200681,237.987733 457.290909,238.363636 C457.787879,240.515152 455.8,241.527273 454.472727,241.963636 L454.472727,241.963636 Z"
                          id="Shape"
                          fill="url(#linearGradient-1)"
                          fill-rule="nonzero"></path>
                    <path d="M454.957576,335.29697 L455.90303,338.127273 L452.836364,341.193939 L442.690909,343.581818 L435.375758,342.872727 L435.848485,340.278788 L435.848485,340.278788 C436.132516,339.140924 437.028199,338.256934 438.169697,337.987879 C441.2,337.284848 446.909091,335.672727 448.115152,333.436364 L454.957576,335.29697 Z"
                          id="Path"
                          fill="#EFB7B9"></path>
                    <path d="M454.957576,335.29697 L455.90303,338.127273 L452.836364,341.193939 L442.690909,343.581818 L435.375758,342.872727 L435.848485,340.278788 L435.848485,340.278788 C436.132516,339.140924 437.028199,338.256934 438.169697,337.987879 C441.2,337.284848 446.909091,335.672727 448.115152,333.436364 L454.957576,335.29697 Z"
                          id="Path"
                          fill="#000000"
                          opacity="0.1"></path>
                    <path d="M437.733333,342.139394 L439.151515,340.254545 L437.733333,338.066667 C437.733333,338.066667 433.490909,339.781818 431.6,339.545455 C429.709091,339.309091 428.769697,342.612121 432.309091,343.557576 C435.848485,344.50303 455.90303,343.557576 455.90303,343.557576 C455.90303,343.557576 459.442424,341.90303 455.90303,337.418182 L452.836364,339.781818 C452.836364,339.781818 447.642424,342.612121 445.048485,342.139394 L437.733333,342.139394 Z"
                          id="Path"
                          fill="#C17174"></path>
                    <path d="M431.369697,346.151515 L438.684848,346.860606 L448.830303,344.49697 L451.89697,341.430303 L451.648485,340.684848 L451.29697,339.630303 L450.951515,338.6 L444.09697,336.715152 C443.749192,337.279906 443.273845,337.755253 442.709091,338.10303 C440.484848,339.624242 436.49697,340.721212 434.151515,341.266667 C434.052654,341.290547 433.955474,341.320916 433.860606,341.357576 C433.404299,341.502814 432.988907,341.754126 432.648485,342.090909 C432.238987,342.492706 431.949394,343.000543 431.812121,343.557576 L431.369697,346.151515 Z"
                          id="Path"
                          fill="#EFB7B9"></path>
                    <path d="M431.369697,346.151515 L438.684848,346.860606 L448.830303,344.49697 L451.89697,341.430303 L451.648485,340.684848 L448.830303,342.848485 C448.830303,342.848485 443.636364,345.678788 441.042424,345.206061 L433.721212,345.206061 L435.139394,343.321212 L433.866667,341.357576 C433.410359,341.502814 432.994968,341.754126 432.654545,342.090909 C432.245047,342.492706 431.955455,343.000543 431.818182,343.557576 L431.369697,346.151515 Z"
                          id="Path"
                          fill="#000000"
                          opacity="0.1"></path>
                    <path d="M433.721212,345.442424 L435.139394,343.557576 L433.721212,341.369697 C433.721212,341.369697 429.478788,343.084848 427.587879,342.848485 C425.69697,342.612121 424.757576,345.915152 428.29697,346.860606 C431.836364,347.806061 451.890909,346.860606 451.890909,346.860606 C451.890909,346.860606 455.430303,345.206061 451.890909,340.727273 L448.824242,343.084848 C448.824242,343.084848 443.630303,345.915152 441.036364,345.442424 L433.721212,345.442424 Z"
                          id="Path"
                          fill="#C17174"></path>
                    <path d="M439.618182,208.593939 C439.618182,208.593939 450.945455,209.806061 449.315152,205.054545 C448.849413,203.716276 448.728517,202.282201 448.963636,200.884848 C449.255235,199.155039 449.939417,197.515074 450.963636,196.090909 L440.345455,197.739394 C440.983688,198.803603 441.469242,199.952202 441.787879,201.151515 C443.030303,206.157576 439.618182,208.593939 439.618182,208.593939 Z"
                          id="Path"
                          fill="#DB8B8B"></path>
                    <path d="M458.969697,262.369697 C458.969697,262.369697 458.733333,272.515152 456.375758,277.472727 L455.90303,291.866667 C455.90303,291.866667 456.606061,305.078788 458.024242,307.672727 C459.442424,310.266667 454.957576,332.212121 454.957576,332.212121 L454.957576,335.987879 C454.957576,335.987879 447.406061,338.818182 445.260606,335.515152 L447.381818,307.436364 L446.436364,268.509091 L458.969697,262.369697 Z"
                          id="Path"
                          fill="#474463"></path>
                    <path d="M458.969697,262.369697 C458.969697,262.369697 458.733333,272.515152 456.375758,277.472727 L455.90303,291.866667 C455.90303,291.866667 456.606061,305.078788 458.024242,307.672727 C459.442424,310.266667 454.957576,332.212121 454.957576,332.212121 L454.957576,335.987879 C454.957576,335.987879 447.406061,338.818182 445.260606,335.515152 L447.381818,307.436364 L446.436364,268.509091 L458.969697,262.369697 Z"
                          id="Path"
                          fill="#000000"
                          opacity="0.1"></path>
                    <path d="M463.684848,229.830303 L465.10303,233.606061 L466.315152,241.624242 C466.635396,243.893799 465.843665,246.178766 464.187879,247.763636 C461.357576,250.593939 457.581818,256.490909 457.581818,256.490909 L453.10303,243.042424 C453.10303,243.042424 457.581818,242.333333 456.872727,239.266667 C456.163636,236.2 456.406061,230.539394 456.406061,230.539394 L463.684848,229.830303 Z"
                          id="Path"
                          fill="#FF748E"></path>
                    <path d="M463.739394,229.775758 L465.151515,233.551515 L466.363636,241.575758 C466.688514,243.842792 465.898467,246.127158 464.242424,247.709091 C461.406061,250.539394 457.636364,256.442424 457.636364,256.442424 L453.121212,242.975758 C453.121212,242.975758 457.606061,242.266667 456.89697,239.2 C456.187879,236.133333 456.424242,230.466667 456.424242,230.466667 L463.739394,229.775758 Z"
                          id="Path"
                          fill="#000000"
                          opacity="0.05"></path>
                    <path d="M442.715152,338.127273 C445.745455,342.890909 450.454545,340.187879 451.290909,339.654545 L450.945455,338.624242 L444.09697,336.715152 C443.753916,337.288048 443.280472,337.771874 442.715152,338.127273 Z"
                          id="Path"
                          fill="#000000"
                          opacity="0.1"></path>
                    <path d="M433.248485,271.593939 C433.484848,274.89697 437.490909,286.927273 437.490909,286.927273 L440.321212,296.830303 C442.345976,303.832356 443.392259,311.080872 443.430303,318.369697 C443.359224,320.664434 443.664268,322.955332 444.333333,325.151515 C446.224242,330.345455 442.448485,337.418182 442.448485,337.418182 C445.751515,343.321212 451.412121,339.309091 451.412121,339.309091 L451.412121,335.533333 C451.412121,335.533333 455.89697,315.006061 454.715152,310.993939 C453.533333,306.981818 453.066667,296.133333 453.066667,296.133333 L453.066667,276.545455 C456.844696,272.779472 459.142115,267.780221 459.539394,262.460606 C459.593939,261.684848 459.642424,260.872727 459.672727,260.036364 C459.860606,254.715152 456.218182,248.472727 454.824242,246.248485 C454.484848,245.709091 454.266667,245.406061 454.266667,245.406061 L433.436364,253.672727 L433.387879,253.672727 L433.387879,254.490909 L433.387879,256.272727 L433.248485,271.593939 Z"
                          id="Path"
                          fill="#474463"></path>
                    <path d="M440.327273,197.739394 C440.965506,198.803603 441.45106,199.952202 441.769697,201.151515 C444.09945,202.035499 446.687738,201.939313 448.945455,200.884848 C449.237053,199.155039 449.921235,197.515074 450.945455,196.090909 L440.327273,197.739394 Z"
                          id="Path"
                          fill="#000000"
                          opacity="0.1"></path>
                    <circle id="Oval"
                            fill="#EFB7B9"
                            cx="445.048485"
                            cy="192.078788"
                            r="9.2"></circle>
                    <path d="M433.248485,256.254545 L433.351515,256.254545 C443.242424,258.290909 455.666667,247.981818 455.666667,247.981818 C455.333607,247.419728 455.045829,246.832013 454.806061,246.224242 C454.466667,245.684848 454.248485,245.381818 454.248485,245.381818 L433.418182,253.648485 L433.363636,254.472727 L433.248485,256.254545 Z"
                          id="Path"
                          fill="#000000"
                          opacity="0.1"></path>
                    <path d="M435.848485,208.357576 C435.848485,208.357576 449.060606,200.333333 453.30303,203.636364 L459.206061,211.187879 C459.206061,211.187879 462.981818,212.369697 462.278788,219.945455 L465.109091,233.630303 L456.624242,235.751515 C456.624242,235.751515 451.672727,240.472727 455.684848,247.315152 C455.684848,247.315152 443.175758,257.69697 433.260606,255.569697 L433.969697,244.484848 C433.969697,244.484848 436.090909,238.345455 432.321212,232.684848 C428.551515,227.024242 432.084848,221.593939 435.624242,219.472727 C435.612121,219.448485 437.260606,210.478788 435.848485,208.357576 Z"
                          id="Path"
                          fill="#FF748E"></path>
                    <path d="M435.139394,256.490909 C435.139394,256.490909 430.181818,257.436364 427.824242,261.212121 C427.142396,262.346868 426.310661,263.384498 425.351515,264.29697 C424.914816,264.694383 424.691892,265.274979 424.750409,265.862533 C424.808926,266.450087 425.141981,266.975312 425.648485,267.278788 C427.521212,268.406061 430.569697,269.09697 434.430303,265.927273 C441.066667,260.50303 435.139394,256.490909 435.139394,256.490909 Z"
                          id="Path"
                          fill="#EFB7B9"></path>
                    <path d="M442.454545,212.842424 C442.454545,212.842424 447.169697,212.369697 448.351515,224.636364 C449.533333,236.90303 451.418182,239.739394 451.418182,239.739394 C451.418182,239.739394 452.6,246.109091 449.763636,249.884848 C446.927273,253.660606 441.509091,261.684848 441.509091,261.684848 C441.509091,261.684848 435.612121,263.333333 434.430303,257.442424 L441.745455,243.757576 C441.745455,243.757576 442.921212,239.036364 440.090909,235.733333 C437.260606,232.430303 435.139394,210.478788 442.454545,212.842424 Z"
                          id="Path"
                          fill="#000000"
                          opacity="0.1"></path>
                    <path d="M441.981818,212.133333 C441.981818,212.133333 446.69697,211.660606 447.878788,223.933333 C449.060606,236.206061 450.945455,239.030303 450.945455,239.030303 C450.945455,239.030303 452.157576,245.4 449.29697,249.175758 C446.436364,252.951515 441.066667,260.975758 441.066667,260.975758 C441.066667,260.975758 435.169697,262.624242 433.987879,256.733333 L441.30303,243.048485 C441.30303,243.048485 442.484848,238.327273 439.648485,235.024242 C436.812121,231.721212 434.666667,209.775758 441.981818,212.133333 Z"
                          id="Path"
                          fill="#FF748E"></path>
                    <path d="M438.084848,220.981818 C438.084848,220.981818 437.618182,228.29697 439.739394,232.309091 C441.860606,236.321212 441.860606,241.509091 439.739394,244.339394"
                          id="Path"
                          fill="#000000"
                          opacity="0.1"></path>
                    <path d="M436.909091,212.012121 C436.909091,212.012121 438.793939,210.127273 444.224242,209.890909 C449.654545,209.654545 452.006061,208.006061 452.006061,208.006061"
                          id="Path"
                          fill="#000000"
                          opacity="0.1"></path>
                    <path d="M450.030303,180.187879 C451.466667,180.363636 453.10303,180.854545 453.618182,182.2 C453.760038,182.712133 453.871345,183.232241 453.951515,183.757576 C454.484848,185.818182 456.806061,186.787879 458.236364,188.351515 C459.49697,189.745455 460.054545,191.624242 460.466667,193.460606 C461.641605,198.719509 461.9223,204.13876 461.29697,209.490909 C460.836364,213.4 459.890909,217.254545 459.630303,221.181818 C459.369697,225.109091 459.848485,229.248485 461.993939,232.551515 C462.921212,233.969697 464.139394,235.218182 464.793939,236.793939 C463.442424,237.890909 461.575758,238.048485 459.830303,238.109091 C457.810101,238.177778 455.779798,238.177778 453.739394,238.109091 C452.67133,238.151709 451.609357,237.928903 450.648485,237.460606 C449.968629,237.027566 449.409775,236.429092 449.024242,235.721212 C447.860606,233.751515 447.569697,231.381818 447.618182,229.09697 C447.666667,226.812121 448.030303,224.539394 448.072727,222.248485 C448.193163,220.998719 447.915266,219.742879 447.278788,218.660606 C446.693077,217.979843 446.030018,217.369666 445.30303,216.842424 C442.775758,214.6 441.909091,211.012121 441.824242,207.636364 C441.739394,204.260606 442.29697,200.884848 442.012121,197.521212 C441.90303,196.206061 441.406061,194.624242 440.115152,194.369697 C439.707244,194.353149 439.301611,194.300417 438.90303,194.212121 C437.866667,193.812121 437.969697,192.351515 437.690909,191.278788 C437.357576,190.066667 436.327273,189.139394 436.036364,187.927273 C435.357576,185.072727 438.993939,181.660606 441.375758,180.654545 C443.757576,179.648485 447.478788,179.872727 450.030303,180.187879 Z"
                          id="Path"
                          fill="#000000"
                          opacity="0.1"></path>
                    <path d="M450.266667,179.715152 C451.70303,179.890909 453.339394,180.381818 453.854545,181.733333 C453.997017,182.243267 454.108333,182.761396 454.187879,183.284848 C454.721212,185.345455 457.042424,186.315152 458.472727,187.878788 C459.733333,189.272727 460.290909,191.151515 460.70303,192.987879 C461.877996,198.253002 462.156651,203.678571 461.527273,209.036364 C461.072727,212.945455 460.127273,216.8 459.866667,220.733333 C459.606061,224.666667 460.084848,228.793939 462.230303,232.09697 C463.157576,233.521212 464.375758,234.763636 465.030303,236.339394 C463.678788,237.442424 461.812121,237.593939 460.066667,237.654545 C458.046465,237.719192 456.016162,237.719192 453.975758,237.654545 C452.908182,237.6993 451.846174,237.478569 450.884848,237.012121 C450.204741,236.576779 449.645958,235.976295 449.260606,235.266667 C448.09697,233.29697 447.806061,230.927273 447.854545,228.642424 C447.90303,226.357576 448.266667,224.084848 448.309091,221.8 C448.309091,220.551515 448.236364,219.230303 447.515152,218.212121 C446.930815,217.530031 446.26759,216.919702 445.539394,216.393939 C443.012121,214.151515 442.145455,210.563636 442.060606,207.187879 C441.975758,203.812121 442.533333,200.436364 442.248485,197.072727 C442.139394,195.757576 441.642424,194.175758 440.351515,193.921212 C439.943607,193.904664 439.537974,193.851932 439.139394,193.763636 C438.10303,193.363636 438.206061,191.90303 437.927273,190.830303 C437.593939,189.618182 436.563636,188.69697 436.272727,187.478788 C435.593939,184.624242 439.230303,181.212121 441.612121,180.206061 C443.993939,179.2 447.733333,179.4 450.266667,179.715152 Z"
                          id="Path"
                          fill="#464353"></path>
                    <path d="M77.6,347.133333 C77.6,347.133333 84.0969697,346.933333 86.0484848,345.539394 C88,344.145455 96.0363636,342.478788 96.5212121,344.715152 C97.0060606,346.951515 106.278788,355.830303 98.9454545,355.890909 C91.6121212,355.951515 81.9151515,354.745455 79.9575758,353.557576 C78,352.369697 77.6,347.133333 77.6,347.133333 Z"
                          id="Path"
                          fill="#A8A8A8"></path>
                    <path d="M99.0787879,355.09697 C91.7515152,355.157576 82.0484848,353.957576 80.0969697,352.769697 C78.6121212,351.860606 78.0181818,348.612121 77.8181818,347.109091 L77.6,347.109091 C77.6,347.109091 78.0121212,352.345455 79.9636364,353.533333 C81.9151515,354.721212 91.6181818,355.921212 98.9515152,355.866667 C101.066667,355.866667 101.793939,355.09697 101.757576,353.981818 C101.460606,354.678788 100.654545,355.09697 99.0787879,355.09697 Z"
                          id="Path"
                          fill="#000000"
                          opacity="0.2"></path>
                    <path d="M490.260606,261.890909 C490.260606,261.890909 494.715152,261.751515 496.060606,260.793939 C497.406061,259.836364 502.915152,258.69697 503.248485,260.230303 C503.581818,261.763636 509.951515,267.860606 504.915152,267.90303 C499.878788,267.945455 493.224242,267.115152 491.884848,266.30303 C490.545455,265.490909 490.260606,261.890909 490.260606,261.890909 Z"
                          id="Path"
                          fill="#A8A8A8"></path>
                    <path d="M505.006061,267.369697 C499.975758,267.406061 493.315152,266.581818 491.975758,265.769697 C490.951515,265.163636 490.545455,262.915152 490.412121,261.884848 L490.260606,261.884848 C490.260606,261.884848 490.545455,265.478788 491.884848,266.29697 C493.224242,267.115152 499.884848,267.933333 504.915152,267.89697 C506.369697,267.89697 506.872727,267.369697 506.842424,266.6 C506.642424,267.072727 506.090909,267.357576 505.006061,267.369697 Z"
                          id="Path"
                          fill="#000000"
                          opacity="0.2"></path>
                    <circle id="Oval"
                            fill="#304FFE"
                            opacity="0.1"
                            cx="18.9636364"
                            cy="13.1090909"
                            r="13.1090909"></circle>
                    <circle id="Oval"
                            fill="#304FFE"
                            opacity="0.1"
                            cx="582.6"
                            cy="50.6848485"
                            r="13.1090909"></circle>
                    <circle id="Oval"
                            fill="#304FFE"
                            opacity="0.1"
                            cx="9.6969697"
                            cy="64.3515152"
                            r="9.6969697"></circle>
                    <circle id="Oval"
                            fill="#304FFE"
                            opacity="0.1"
                            cx="107.878788"
                            cy="9.80606061"
                            r="9.6969697"></circle>
                    <circle id="Oval"
                            fill="#304FFE"
                            opacity="0.1"
                            cx="505.454545"
                            cy="11.0181818"
                            r="9.6969697"></circle>
                    <path d="M539.163636,391.757576 C539.163636,391.757576 541.587879,394.933333 538.042424,399.727273 C534.49697,404.521212 531.569697,408.563636 532.751515,411.551515 C532.751515,411.551515 538.10303,402.654545 542.448485,402.527273 C546.793939,402.4 543.951515,397.115152 539.163636,391.757576 Z"
                          id="Path"
                          fill="#FC6681"></path>
                    <path d="M539.163636,391.757576 C539.374391,392.065637 539.539721,392.402421 539.654545,392.757576 C543.89697,397.751515 546.175758,402.412121 542.078788,402.527273 C538.272727,402.636364 533.709091,409.442424 532.612121,411.163636 C532.648397,411.295595 532.692929,411.425143 532.745455,411.551515 C532.745455,411.551515 538.09697,402.654545 542.442424,402.527273 C546.787879,402.4 543.951515,397.115152 539.163636,391.757576 Z"
                          id="Path"
                          fill="#000000"
                          opacity="0.1"></path>
                    <path d="M543.672727,395.806061 C543.672727,396.921212 543.545455,397.830303 543.393939,397.830303 C543.242424,397.830303 543.115152,396.921212 543.115152,395.806061 C543.115152,394.690909 543.272727,395.2 543.424242,395.2 C543.575758,395.2 543.672727,394.684848 543.672727,395.806061 Z"
                          id="Path"
                          fill="#FFD037"></path>
                    <path d="M545.224242,397.139394 C544.242424,397.672727 543.406061,397.993939 543.309091,397.860606 C543.212121,397.727273 543.975758,397.181818 544.951515,396.648485 C545.927273,396.115152 545.557576,396.50303 545.624242,396.648485 C545.690909,396.793939 546.206061,396.606061 545.224242,397.139394 Z"
                          id="Path"
                          fill="#FFD037"></path>
                    <path d="M526.339394,391.757576 C526.339394,391.757576 523.915152,394.933333 527.460606,399.727273 C531.006061,404.521212 533.933333,408.563636 532.751515,411.551515 C532.751515,411.551515 527.393939,402.654545 523.054545,402.527273 C518.715152,402.4 521.545455,397.115152 526.339394,391.757576 Z"
                          id="Path"
                          fill="#FC6681"></path>
                    <path d="M526.339394,391.757576 C526.127864,392.066073 525.960583,392.402676 525.842424,392.757576 C521.6,397.751515 519.327273,402.412121 523.418182,402.527273 C527.224242,402.636364 531.793939,409.442424 532.884848,411.163636 C532.848485,411.290909 532.806061,411.424242 532.757576,411.551515 C532.757576,411.551515 527.4,402.654545 523.060606,402.527273 C518.721212,402.4 521.545455,397.115152 526.339394,391.757576 Z"
                          id="Path"
                          fill="#000000"
                          opacity="0.1"></path>
                    <path d="M521.824242,395.806061 C521.824242,396.921212 521.951515,397.830303 522.109091,397.830303 C522.266667,397.830303 522.387879,396.921212 522.387879,395.806061 C522.387879,394.690909 522.230303,395.2 522.072727,395.2 C521.915152,395.2 521.824242,394.684848 521.824242,395.806061 Z"
                          id="Path"
                          fill="#FFD037"></path>
                    <path d="M520.278788,397.139394 C521.260606,397.672727 522.09697,397.993939 522.187879,397.860606 C522.278788,397.727273 521.527273,397.181818 520.545455,396.648485 C519.563636,396.115152 519.939394,396.50303 519.878788,396.648485 C519.818182,396.793939 519.29697,396.606061 520.278788,397.139394 Z"
                          id="Path"
                          fill="#FFD037"></path>
                    <path d="M522.6,411.139394 C522.6,411.139394 529.387879,410.927273 531.430303,409.472727 C533.472727,408.018182 541.872727,406.278788 542.381818,408.612121 C542.890909,410.945455 552.575758,420.230303 544.915152,420.290909 C537.254545,420.351515 527.109091,419.078788 525.072727,417.866667 C523.036364,416.654545 522.6,411.139394 522.6,411.139394 Z"
                          id="Path"
                          fill="#A8A8A8"></path>
                    <path d="M545.054545,419.478788 C537.387879,419.539394 527.248485,418.266667 525.206061,417.054545 C523.654545,416.109091 523.030303,412.709091 522.824242,411.139394 L522.6,411.139394 C522.6,411.139394 523.030303,416.593939 525.072727,417.854545 C527.115152,419.115152 537.254545,420.351515 544.915152,420.278788 C547.127273,420.278788 547.890909,419.472727 547.848485,418.309091 C547.545455,419.024242 546.69697,419.466667 545.054545,419.478788 Z"
                          id="Path"
                          fill="#000000"
                          opacity="0.2"></path>
                    <path d="M50.8909091,140.781818 C44.0485688,142.371248 39.787713,149.20363 41.370869,156.047425 C42.954025,162.89122 49.7824974,167.158338 56.6277407,165.581457 C63.4729841,164.004577 67.7463614,157.18002 66.1757576,150.333333 C65.4196815,147.037394 63.3830405,144.177834 60.5153655,142.385821 C57.6476904,140.593809 54.1847567,140.016679 50.8909091,140.781818 L50.8909091,140.781818 Z M51.4484848,143.206061 C55.5109678,142.258037 59.7442064,143.853294 62.1706904,147.246625 C64.5971744,150.639955 64.7379803,155.161606 62.5273323,158.699339 C60.3166843,162.237071 56.1909055,164.092631 52.0773074,163.399214 C47.9637094,162.705797 44.6742069,159.600265 43.7454545,155.533333 C42.4828589,150.004529 45.9257283,144.494854 51.4484848,143.206061 L51.4484848,143.206061 Z M58.935624,157.849044 L59.8325937,156.455104 C59.9219691,156.317578 59.9517881,156.149699 59.9152411,155.989807 C59.8786942,155.829914 59.7789022,155.69166 59.6386543,155.606619 L49.0507755,148.873286 C48.9132492,148.783911 48.7453707,148.754092 48.5854778,148.790639 C48.4255848,148.827186 48.2873317,148.926978 48.2022907,149.067225 L47.3477452,150.527832 C47.2563777,150.66582 47.2254132,150.83517 47.2620411,150.996562 C47.298669,151.157954 47.399703,151.297347 47.5416846,151.382377 L58.105321,158.049044 C58.2421017,158.138954 58.4094344,158.169715 58.5692485,158.134327 C58.7290627,158.09894 58.8677676,158.000414 58.9538058,157.861165 L58.935624,157.849044 Z M57.9757576,148.115152 L56.5818182,147.218182 C56.4442919,147.128806 56.2764134,147.098987 56.1165204,147.135534 C55.9566275,147.172081 55.8183743,147.271873 55.7333333,147.412121 L49,158 C48.9106247,158.137526 48.8808057,158.305405 48.9173526,158.465298 C48.9538996,158.625191 49.0536915,158.763444 49.1939394,158.848485 L50.6545455,159.70303 C50.7925341,159.794398 50.9618844,159.825362 51.1232761,159.788734 C51.2846677,159.752107 51.424061,159.651073 51.5090909,159.509091 L58.1757576,148.945455 C58.2656679,148.808674 58.2964287,148.641341 58.2610412,148.481527 C58.2256538,148.321713 58.1271276,148.183008 57.9878788,148.09697 L57.9757576,148.115152 Z"
                          id="Shape"
                          fill="#F30000"
                          fill-rule="nonzero"
                          opacity="0.7"
                          transform="translate(53.770683, 153.180390) rotate(10.000000) translate(-53.770683, -153.180390) "></path>
                    <path d="M188.890909,76.7818182 C182.048569,78.3712483 177.787713,85.2036301 179.370869,92.0474249 C180.954025,98.8912196 187.782497,103.158338 194.627741,101.581457 C201.472984,100.004577 205.746361,93.1800196 204.175758,86.3333333 C203.419682,83.0373936 201.383041,80.177834 198.515365,78.3858213 C195.64769,76.5938087 192.184757,76.0166793 188.890909,76.7818182 L188.890909,76.7818182 Z M189.448485,79.2060606 C193.510968,78.2580373 197.744206,79.8532941 200.17069,83.2466246 C202.597174,86.6399551 202.73798,91.161606 200.527332,94.6993385 C198.316684,98.2370711 194.190905,100.092631 190.077307,99.3992139 C185.963709,98.7057969 182.674207,95.6002652 181.745455,91.5333333 C180.482859,86.0045287 183.925728,80.4948541 189.448485,79.2060606 L189.448485,79.2060606 Z M196.935624,93.8490437 L197.832594,92.4551043 C197.921969,92.317578 197.951788,92.1496995 197.915241,91.9898065 C197.878694,91.8299136 197.778902,91.6916604 197.638654,91.6066194 L187.050776,84.8732861 C186.913249,84.7839108 186.745371,84.7540917 186.585478,84.7906387 C186.425585,84.8271857 186.287332,84.9269776 186.202291,85.0672255 L185.347745,86.5278315 C185.256378,86.6658202 185.225413,86.8351705 185.262041,86.9965622 C185.298669,87.1579538 185.399703,87.2973471 185.541685,87.382377 L196.105321,94.0490437 C196.242102,94.138954 196.409434,94.1697148 196.569249,94.1343273 C196.729063,94.0989399 196.867768,94.0004137 196.953806,93.8611649 L196.935624,93.8490437 Z M195.975758,84.1151515 L194.581818,83.2181818 C194.444292,83.1288065 194.276413,83.0989875 194.11652,83.1355344 C193.956627,83.1720814 193.818374,83.2718734 193.733333,83.4121212 L187,94 C186.910625,94.1375263 186.880806,94.3054048 186.917353,94.4652978 C186.9539,94.6251907 187.053692,94.7634438 187.193939,94.8484848 L188.654545,95.7030303 C188.792534,95.7943978 188.961884,95.8253623 189.123276,95.7887344 C189.284668,95.7521065 189.424061,95.6510726 189.509091,95.5090909 L196.175758,84.9454545 C196.265668,84.8086739 196.296429,84.6413412 196.261041,84.481527 C196.225654,84.3217129 196.127128,84.183008 195.987879,84.0969697 L195.975758,84.1151515 Z"
                          id="Shape"
                          fill="#F30000"
                          fill-rule="nonzero"
                          opacity="0.7"
                          transform="translate(191.770683, 89.180390) rotate(12.000000) translate(-191.770683, -89.180390) "></path>
                    <path d="M373.890909,77.7818182 C367.048569,79.3712483 362.787713,86.2036301 364.370869,93.0474249 C365.954025,99.8912196 372.782497,104.158338 379.627741,102.581457 C386.472984,101.004577 390.746361,94.1800196 389.175758,87.3333333 C388.419682,84.0373936 386.383041,81.177834 383.515365,79.3858213 C380.64769,77.5938087 377.184757,77.0166793 373.890909,77.7818182 L373.890909,77.7818182 Z M374.448485,80.2060606 C378.510968,79.2580373 382.744206,80.8532941 385.17069,84.2466246 C387.597174,87.6399551 387.73798,92.161606 385.527332,95.6993385 C383.316684,99.2370711 379.190905,101.092631 375.077307,100.399214 C370.963709,99.7057969 367.674207,96.6002652 366.745455,92.5333333 C365.482859,87.0045287 368.925728,81.4948541 374.448485,80.2060606 L374.448485,80.2060606 Z M381.935624,94.8490437 L382.832594,93.4551043 C382.921969,93.317578 382.951788,93.1496995 382.915241,92.9898065 C382.878694,92.8299136 382.778902,92.6916604 382.638654,92.6066194 L372.050776,85.8732861 C371.913249,85.7839108 371.745371,85.7540917 371.585478,85.7906387 C371.425585,85.8271857 371.287332,85.9269776 371.202291,86.0672255 L370.347745,87.5278315 C370.256378,87.6658202 370.225413,87.8351705 370.262041,87.9965622 C370.298669,88.1579538 370.399703,88.2973471 370.541685,88.382377 L381.105321,95.0490437 C381.242102,95.138954 381.409434,95.1697148 381.569249,95.1343273 C381.729063,95.0989399 381.867768,95.0004137 381.953806,94.8611649 L381.935624,94.8490437 Z M380.975758,85.1151515 L379.581818,84.2181818 C379.444292,84.1288065 379.276413,84.0989875 379.11652,84.1355344 C378.956627,84.1720814 378.818374,84.2718734 378.733333,84.4121212 L372,95 C371.910625,95.1375263 371.880806,95.3054048 371.917353,95.4652978 C371.9539,95.6251907 372.053692,95.7634438 372.193939,95.8484848 L373.654545,96.7030303 C373.792534,96.7943978 373.961884,96.8253623 374.123276,96.7887344 C374.284668,96.7521065 374.424061,96.6510726 374.509091,96.5090909 L381.175758,85.9454545 C381.265668,85.8086739 381.296429,85.6413412 381.261041,85.481527 C381.225654,85.3217129 381.127128,85.183008 380.987879,85.0969697 L380.975758,85.1151515 Z"
                          id="Shape"
                          fill="#F30000"
                          fill-rule="nonzero"
                          opacity="0.7"
                          transform="translate(376.770683, 90.180390) rotate(12.000000) translate(-376.770683, -90.180390) "></path>
                    <path d="M518.890909,141.781818 C512.048569,143.371248 507.787713,150.20363 509.370869,157.047425 C510.954025,163.89122 517.782497,168.158338 524.627741,166.581457 C531.472984,165.004577 535.746361,158.18002 534.175758,151.333333 C533.419682,148.037394 531.383041,145.177834 528.515365,143.385821 C525.64769,141.593809 522.184757,141.016679 518.890909,141.781818 L518.890909,141.781818 Z M519.448485,144.206061 C523.510968,143.258037 527.744206,144.853294 530.17069,148.246625 C532.597174,151.639955 532.73798,156.161606 530.527332,159.699339 C528.316684,163.237071 524.190905,165.092631 520.077307,164.399214 C515.963709,163.705797 512.674207,160.600265 511.745455,156.533333 C510.482859,151.004529 513.925728,145.494854 519.448485,144.206061 L519.448485,144.206061 Z M526.935624,158.849044 L527.832594,157.455104 C527.921969,157.317578 527.951788,157.149699 527.915241,156.989807 C527.878694,156.829914 527.778902,156.69166 527.638654,156.606619 L517.050776,149.873286 C516.913249,149.783911 516.745371,149.754092 516.585478,149.790639 C516.425585,149.827186 516.287332,149.926978 516.202291,150.067225 L515.347745,151.527832 C515.256378,151.66582 515.225413,151.83517 515.262041,151.996562 C515.298669,152.157954 515.399703,152.297347 515.541685,152.382377 L526.105321,159.049044 C526.242102,159.138954 526.409434,159.169715 526.569249,159.134327 C526.729063,159.09894 526.867768,159.000414 526.953806,158.861165 L526.935624,158.849044 Z M525.975758,149.115152 L524.581818,148.218182 C524.444292,148.128806 524.276413,148.098987 524.11652,148.135534 C523.956627,148.172081 523.818374,148.271873 523.733333,148.412121 L517,159 C516.910625,159.137526 516.880806,159.305405 516.917353,159.465298 C516.9539,159.625191 517.053692,159.763444 517.193939,159.848485 L518.654545,160.70303 C518.792534,160.794398 518.961884,160.825362 519.123276,160.788734 C519.284668,160.752107 519.424061,160.651073 519.509091,160.509091 L526.175758,149.945455 C526.265668,149.808674 526.296429,149.641341 526.261041,149.481527 C526.225654,149.321713 526.127128,149.183008 525.987879,149.09697 L525.975758,149.115152 Z"
                          id="Shape"
                          fill="#F30000"
                          fill-rule="nonzero"
                          opacity="0.7"
                          transform="translate(521.770683, 154.180390) rotate(14.000000) translate(-521.770683, -154.180390) "></path>
                </g>
            </g>
        </g>
    </g>
</svg>
